<svg xmlns="http://www.w3.org/2000/svg" xmlns:xlink="http://www.w3.org/1999/xlink" viewBox="0 0 61 75" version="1.1" x="0px" y="0px"><title>24 -Dessert- (Outline)</title><desc>Created with Sketch.</desc><g stroke="none" stroke-width="1" fill="none" fill-rule="evenodd"><g transform="translate(-480.000000, -566.000000)" fill="#000000"><g transform="translate(480.000000, 565.000000)"><path d="M2.1314,48.9987 C2.5954,51.2777 4.6164,52.9987 7.0304,52.9987 L53.0304,52.9987 C55.4454,52.9987 57.4654,51.2777 57.9304,48.9987 L2.1314,48.9987 Z M53.0304,54.9987 L7.0304,54.9987 C3.1714,54.9987 0.0304,51.8587 0.0304,47.9987 C0.0304,47.4467 0.4784,46.9987 1.0304,46.9987 L59.0304,46.9987 C59.5834,46.9987 60.0304,47.4467 60.0304,47.9987 C60.0304,51.8587 56.8904,54.9987 53.0304,54.9987 L53.0304,54.9987 Z"/><path d="M15.0909,23.9987 L18.9719,23.9987 C18.7119,21.8737 17.6549,20.7167 17.0359,20.2097 C16.4109,20.7257 15.3539,21.8897 15.0909,23.9987 M20.0309,25.9987 L14.0309,25.9987 C13.4789,25.9987 13.0309,25.5507 13.0309,24.9987 C13.0309,20.0117 16.4239,18.1867 16.5689,18.1117 C16.8559,17.9617 17.1979,17.9617 17.4859,18.1077 C17.6309,18.1817 21.0309,19.9757 21.0309,24.9987 C21.0309,25.5507 20.5829,25.9987 20.0309,25.9987"/><path d="M28.0909,23.9987 L31.9719,23.9987 C31.7119,21.8737 30.6549,20.7167 30.0359,20.2097 C29.4109,20.7257 28.3539,21.8897 28.0909,23.9987 M33.0309,25.9987 L27.0309,25.9987 C26.4789,25.9987 26.0309,25.5507 26.0309,24.9987 C26.0309,20.0117 29.4239,18.1867 29.5689,18.1117 C29.8559,17.9617 30.1979,17.9617 30.4859,18.1077 C30.6309,18.1817 34.0309,19.9757 34.0309,24.9987 C34.0309,25.5507 33.5829,25.9987 33.0309,25.9987"/><path d="M41.0909,23.9987 L44.9719,23.9987 C44.7119,21.8737 43.6549,20.7167 43.0359,20.2097 C42.4109,20.7257 41.3539,21.8897 41.0909,23.9987 M46.0309,25.9987 L40.0309,25.9987 C39.4789,25.9987 39.0309,25.5507 39.0309,24.9987 C39.0309,20.0117 42.4239,18.1867 42.5689,18.1117 C42.8559,17.9617 43.1979,17.9617 43.4859,18.1077 C43.6309,18.1817 47.0309,19.9757 47.0309,24.9987 C47.0309,25.5507 46.5829,25.9987 46.0309,25.9987"/><path d="M6.0308,46.9987 L54.0308,46.9987 L54.0308,24.4077 C54.0308,15.3597 46.6698,7.9987 37.6218,7.9987 C35.6368,7.9987 33.8778,6.8077 33.1398,4.9647 L33.0648,4.7747 C32.6328,3.6957 31.6028,2.9987 30.4408,2.9987 L29.6218,2.9987 C28.4588,2.9987 27.4288,3.6957 26.9978,4.7757 L26.9218,4.9647 C26.1848,6.8077 24.4258,7.9987 22.4408,7.9987 C13.3918,7.9987 6.0308,15.3597 6.0308,24.4077 L6.0308,46.9987 Z M55.0308,48.9987 L5.0308,48.9987 C4.4788,48.9987 4.0308,48.5507 4.0308,47.9987 L4.0308,24.4077 C4.0308,14.2567 12.2888,5.9987 22.4408,5.9987 C23.6028,5.9987 24.6328,5.3017 25.0648,4.2217 L25.1398,4.0327 C25.8778,2.1897 27.6368,0.9987 29.6218,0.9987 L30.4408,0.9987 C32.4258,0.9987 34.1848,2.1897 34.9218,4.0327 L34.9978,4.2227 C35.4288,5.3017 36.4588,5.9987 37.6218,5.9987 C47.7728,5.9987 56.0308,14.2567 56.0308,24.4077 L56.0308,47.9987 C56.0308,48.5507 55.5828,48.9987 55.0308,48.9987 L55.0308,48.9987 Z"/><path d="M36.0308,2.9987 L24.0308,2.9987 C23.4788,2.9987 23.0308,2.5507 23.0308,1.9987 C23.0308,1.4467 23.4788,0.9987 24.0308,0.9987 L36.0308,0.9987 C36.5828,0.9987 37.0308,1.4467 37.0308,1.9987 C37.0308,2.5507 36.5828,2.9987 36.0308,2.9987"/><path d="M16.0308,58.9987 L44.0308,58.9987 L44.0308,57.9987 L39.0308,57.9987 C37.1708,57.9987 35.6028,56.7217 35.1568,54.9987 L24.9048,54.9987 C24.4588,56.7217 22.8908,57.9987 21.0308,57.9987 L16.0308,57.9987 L16.0308,58.9987 Z M45.0308,60.9987 L15.0308,60.9987 C14.4788,60.9987 14.0308,60.5507 14.0308,59.9987 L14.0308,56.9987 C14.0308,56.4467 14.4788,55.9987 15.0308,55.9987 L21.0308,55.9987 C22.1338,55.9987 23.0308,55.1017 23.0308,53.9987 C23.0308,53.4467 23.4788,52.9987 24.0308,52.9987 L36.0308,52.9987 C36.5828,52.9987 37.0308,53.4467 37.0308,53.9987 C37.0308,55.1017 37.9278,55.9987 39.0308,55.9987 L45.0308,55.9987 C45.5828,55.9987 46.0308,56.4467 46.0308,56.9987 L46.0308,59.9987 C46.0308,60.5507 45.5828,60.9987 45.0308,60.9987 L45.0308,60.9987 Z"/><path d="M15.0308,60.9987 L12.0308,60.9987 C11.4788,60.9987 11.0308,60.5507 11.0308,59.9987 C11.0308,59.4467 11.4788,58.9987 12.0308,58.9987 L15.0308,58.9987 C15.5828,58.9987 16.0308,59.4467 16.0308,59.9987 C16.0308,60.5507 15.5828,60.9987 15.0308,60.9987"/><path d="M48.0308,60.9987 L45.0308,60.9987 C44.4788,60.9987 44.0308,60.5507 44.0308,59.9987 C44.0308,59.4467 44.4788,58.9987 45.0308,58.9987 L48.0308,58.9987 C48.5828,58.9987 49.0308,59.4467 49.0308,59.9987 C49.0308,60.5507 48.5828,60.9987 48.0308,60.9987"/><path d="M11.031,46.999 L49.031,46.999 L49.031,41.999 L11.031,41.999 L11.031,46.999 Z M50.031,48.999 L10.031,48.999 C9.479,48.999 9.031,48.551 9.031,47.999 L9.031,40.999 C9.031,40.447 9.479,39.999 10.031,39.999 L50.031,39.999 C50.583,39.999 51.031,40.447 51.031,40.999 L51.031,47.999 C51.031,48.551 50.583,48.999 50.031,48.999 L50.031,48.999 Z"/><path d="M9.0308,28.9987 L15.5028,28.9987 C17.4968,28.9987 18.0308,32.9897 18.0308,33.5267 L18.0308,34.9987 C18.0308,36.1017 18.9278,36.9987 20.0308,36.9987 C21.1338,36.9987 22.0308,36.1017 22.0308,34.9987 C22.0308,33.8957 22.9278,32.9987 24.0308,32.9987 L28.0308,32.9987 C28.0308,32.9587 28.2118,28.9987 30.0308,28.9987 L43.7198,28.9987 C45.5458,28.9987 47.0308,30.4837 47.0308,32.3097 L47.0308,33.8287 C47.0308,34.9687 47.8788,35.9407 48.9218,35.9957 C49.4838,36.0287 50.0058,35.8317 50.4068,35.4497 C50.8088,35.0687 51.0308,34.5527 51.0308,33.9987 L51.0308,27.5637 C51.0308,26.7007 50.3288,25.9987 49.4658,25.9987 L10.5958,25.9987 C9.7328,25.9987 9.0308,26.7007 9.0308,27.5637 L9.0308,28.9987 Z M20.0308,38.9987 C17.8248,38.9987 16.0308,37.2047 16.0308,34.9987 L16.0308,33.5267 C16.0308,32.9287 15.6078,31.4527 15.2798,30.9987 L8.0308,30.9987 C7.4788,30.9987 7.0308,30.5507 7.0308,29.9987 L7.0308,27.5637 C7.0308,25.5977 8.6298,23.9987 10.5958,23.9987 L49.4658,23.9987 C51.4318,23.9987 53.0308,25.5977 53.0308,27.5637 L53.0308,33.9987 C53.0308,35.0907 52.5758,36.1487 51.7838,36.9007 C50.9798,37.6627 49.9238,38.0497 48.8178,37.9927 C46.6938,37.8817 45.0308,36.0527 45.0308,33.8287 L45.0308,32.3097 C45.0308,31.5867 44.4428,30.9987 43.7198,30.9987 L30.4608,30.9987 C30.2508,31.5367 30.0308,32.6657 30.0308,32.9987 C30.0308,34.1017 29.1338,34.9987 28.0308,34.9987 L24.0308,34.9987 C24.0308,37.2047 22.2368,38.9987 20.0308,38.9987 L20.0308,38.9987 Z"/><path d="M10.0313,34.9987 C9.4793,34.9987 9.0313,34.5507 9.0313,33.9987 L9.0313,29.9987 C9.0313,29.4467 9.4793,28.9987 10.0313,28.9987 C10.5833,28.9987 11.0313,29.4467 11.0313,29.9987 L11.0313,33.9987 C11.0313,34.5507 10.5833,34.9987 10.0313,34.9987"/><path d="M50.0313,41.9987 L10.0313,41.9987 C9.4793,41.9987 9.0313,41.5507 9.0313,40.9987 L9.0313,33.9987 C9.0313,33.4467 9.4793,32.9987 10.0313,32.9987 L17.0313,32.9987 C17.5833,32.9987 18.0313,33.4467 18.0313,33.9987 C18.0313,34.5507 17.5833,34.9987 17.0313,34.9987 L11.0313,34.9987 L11.0313,39.9987 L49.0313,39.9987 L49.0313,36.8217 C49.0313,36.2697 49.4793,35.8217 50.0313,35.8217 C50.5833,35.8217 51.0313,36.2697 51.0313,36.8217 L51.0313,40.9987 C51.0313,41.5507 50.5833,41.9987 50.0313,41.9987"/><path d="M46.0469,34.9992 L24.0309,34.9992 C23.4789,34.9992 23.0309,34.5512 23.0309,33.9992 C23.0309,33.4462 23.4789,32.9992 24.0309,32.9992 L46.0469,32.9992 L46.0469,34.9992 Z"/></g></g></g><text x="0" y="75" fill="#000000" font-size="5px" font-weight="bold" font-family="'Helvetica Neue', Helvetica, Arial-Unicode, Arial, Sans-serif">Created by Ben Davis</text><text x="0" y="80" fill="#000000" font-size="5px" font-weight="bold" font-family="'Helvetica Neue', Helvetica, Arial-Unicode, Arial, Sans-serif">from the Noun Project</text></svg>