<svg xmlns="http://www.w3.org/2000/svg" xmlns:xlink="http://www.w3.org/1999/xlink" version="1.1" x="0px" y="0px" viewBox="0 0 91 113.75" style="enable-background:new 0 0 91 91;" xml:space="preserve"><g><path d="M88.4,75.7c-0.8,0-1.7-0.1-2.5-0.1C85.6,68,83.2,61,78.6,54.9c-2.3-2.9-4.9-5.4-7.9-7.6c-1.8-1.3-4.1-2.8-6.4-3.5   c-1.2-3.7-7.2-5.9-10.4-6.3c-4.1-0.6-8,0.8-10.9,3.4c-2.3-0.7-5.2,0.5-7.1,1.7c-0.6,0.4-1.1,0.8-1.6,1.2c0.4-6.9,9.3-13.2,5.9-20   c1.4-0.1,2.7-0.3,4-0.7c4.5-1.4,5.4-4.8,5.5-8.6c0.6,0,16.9-0.1,24.4,0.6c3.4,0.3,3.4-5.6,0-5.3c-7.5,0.6-23.9,0.5-24.5,0.5   c-0.2-4.5-1.2-8.3-6.5-8.8c-3.3-0.3-6.6-0.5-9.9-0.4c-1.6,0-4.1-0.3-6,0.1c-3.3,0-7.2,3.4-8.5,5.8C16.1,11.4,17,17.4,20,21.5   c1.5,2,4,3.3,5.3,5.4c1.8,2.9-1.2,6.1-2.8,8.4c-3.2,4.8-4.5,9.7-1,14.7c0.4,0.5,0.9,0.8,1.4,0.9c-3.8,2.5-7.2,5.5-9.9,8.8   c-2.2,2.7-4,5.7-5.4,8.9c-0.7,1.7-1.9,4.2-2,6.4c-1.2,0.2-2.4,0.4-3.6,0.7c-0.9,0.3-1,1.8,0,2c1.2,0.2,2.3,0.3,3.5,0.5   c0,0.2,0.1,0.4,0.1,0.5c0.9,1.9,1.9,3.7,3,5.5c0.9,1.6,1.5,3.9,3.4,4.6c1.6,0.6,3.9,0.1,5.7,0.1c5.9-0.1,11.8,0,17.8,0   c12.4,0.1,24.9,0.3,37.3,0.6c3.4,0.1,5.8-0.3,7.9-3.1c1.8-2.4,3.2-5.1,4.5-7.8l0,0c1,0,2.1,0,3.1,0C90.4,78.7,90.3,75.8,88.4,75.7z    M43,47.9c1.9-3.7,5.2-6.3,9.5-6.5c2.2-0.1,4.4,0.3,6.4,1.3c0,0,0,0,0.1,0c-2.5-0.1-5.2,0.7-7.2,1.8c-4,2.1-6.4,6-6.8,10.4   c-0.4,3.8,1,7.5,2.4,11c1.2,2.9,2.5,5.8,4.1,8.5c-1.1,0-2.2,0-3.4,0c0-0.1-0.1-0.2-0.1-0.3C43.5,66.1,38.2,57,43,47.9z M61.6,65.3   c-3.2-2.4-7.3-3.3-11.2-2.6c-0.5-1.3-0.9-2.6-1.2-3.9c-0.3-1.2-0.4-2.4-0.3-3.5c2.3,0.3,4.7,0.4,7,0.9c3.3,0.8,6.4,2.1,9.1,4.1   c4.9,3.5,8.3,9,9.8,14.8c-2.4-0.1-4.8-0.2-7.1-0.3C66.4,71.2,64.8,67.6,61.6,65.3z M62.7,74.7c-2.1-0.1-4.1-0.1-6.2-0.1   c-1.6-2.5-3.2-5.2-4.5-8.1c2.6,0.1,5.1,0.7,7.1,2.5C60.9,70.4,61.9,72.5,62.7,74.7z M36.5,46.5c1-0.9,2.2-1.6,3.4-2.1   c-2.6,4-3.6,9-3.2,13.7c0.6,6,3.3,11.2,6.1,16.3c-2.3,0-4.6,0-6.8,0l0,0c-2.4-6.2-4.9-12.8-3.8-19.5C32.7,51.6,34.1,48.6,36.5,46.5   z M41.7,19.4c-2,0.3-4.2,0.2-6.4,0c-1.2-0.7-2.4-1.4-3.3-2.5C31.3,16,30.9,15,30.9,14c2.7,0.4,12.6,0.3,14.8,0.3   C45.7,16.8,45,19,41.7,19.4z M35.3,4.8c0.2,0,5.7-0.2,7.8,0.4c2.5,0.7,2.5,2.7,2.5,5c-2,0-11.4,0-14,0.2   C32.4,8.3,33.9,6.3,35.3,4.8z M29.1,33.5c1.8-3.4,1.8-7-0.8-10c-1.4-1.7-3.4-2.9-4.7-4.7c-1.4-2-2.1-4.6-1.8-7   c0.3-2.5,1.8-4.2,3.8-5.7c0.9-0.6,1.8-1,2.6-1.6c0.3,0,2.1,0,2.7,0.1c-1.5,1.6-2.7,3.6-3.4,5.7c-1.5,4-0.3,7.6,2.6,10.2   c-0.6,1.5,0.1,3.4,2.2,3.3c0.9,0,1.8-0.1,2.7-0.1c0.4,0.3,0.7,0.6,1,1c1.8,2.5-0.5,5.8-1.9,8.1c-2.7,4.4-4.8,7.9-4.2,13.3   c0,0.4,0.1,0.7,0.3,1c-1.4,0.6-2.9,1.3-4.3,2c0.1-0.5,0-1-0.4-1.5C21.6,42.2,26.6,38.4,29.1,33.5z M31.8,74.4   c-4.4,0-8.8,0.1-13.3,0.2c1-2.2,3-4.6,4.3-6.1c1.7-1.9,3.6-3.3,5.7-4.5C29.3,67.5,30.6,71,31.8,74.4z M10.9,70   c1.4-2.9,3-5.9,5.2-8.3c3.7-4.2,8.2-6.9,12.8-9.6c-0.8,2.5-1,5.1-0.8,7.7c-3.3,1.5-6.1,3.6-8.4,6.5c-1.7,2.1-4.2,5.5-4.3,8.4   c-0.7,0-1.5,0-2.2,0c-1.3,0-2.6,0.1-4,0.1C9.8,73.1,10.3,71.2,10.9,70z M78.5,82.5c-0.9,1.5-1.6,2.8-3.5,3   c-0.8,0.1-1.7-0.1-2.5-0.1c-4.7-0.2-9.5-0.3-14.2-0.3c-12.2-0.1-24.4-0.4-36.5,0c-2.2,0.1-4.4,0.2-6.6,0.4   c-1.7,0.1-2.2-0.6-3.1-2.1c-1-1.7-2.2-3.3-3.2-4.9c6.4,0.4,12.9,0.1,19.3,0.1c13.9,0,27.9,0.1,41.8,0.1c3.6,0,7.3,0,10.9,0   C80,80,79.3,81.3,78.5,82.5z M81.4,75.3c-0.6,0-1.1-0.1-1.7-0.1c-2.2-6.9-6-13.3-11.9-17.6c-4.7-3.4-12.2-5.7-18.3-4.5   c0.4-1.3,1.1-2.5,2.1-3.6c1.6-1.6,3.8-2.5,6-2.8c1.8-0.2,3.6,0.3,5.4,0.2c1.6,1,3.3,1.8,4.7,2.9c2.8,2,5.4,4.6,7.5,7.4   C79,62.4,81.5,68.8,81.4,75.3z"/></g><text x="0" y="106" fill="#000000" font-size="5px" font-weight="bold" font-family="'Helvetica Neue', Helvetica, Arial-Unicode, Arial, Sans-serif">Created by BomSymbols</text><text x="0" y="111" fill="#000000" font-size="5px" font-weight="bold" font-family="'Helvetica Neue', Helvetica, Arial-Unicode, Arial, Sans-serif">from the Noun Project</text></svg>