<?xml version="1.0" encoding="UTF-8" standalone="no"?><!DOCTYPE svg PUBLIC "-//W3C//DTD SVG 1.1//EN" "http://www.w3.org/Graphics/SVG/1.1/DTD/svg11.dtd"><svg width="100%" height="100%" viewBox="0 0 34 38" version="1.1" xmlns="http://www.w3.org/2000/svg" xmlns:xlink="http://www.w3.org/1999/xlink" xml:space="preserve" xmlns:serif="http://www.serif.com/" style="fill-rule:evenodd;clip-rule:evenodd;stroke-linejoin:round;stroke-miterlimit:1.41421;"><g><path d="M24.858,18.121c-0.341,-0.635 -0.844,-1.183 -1.482,-1.582l-2.844,-1.777l0,-1.477l1.207,0l0,-3.019c0,-0.999 -0.812,-1.812 -1.811,-1.812l-1.208,0l0,-3.623l7.246,0l0,-4.831l-9.058,0c-1.664,0 -3.019,1.354 -3.019,3.019l0,5.435l-3.937,0c1.412,-2.111 1.188,-5 -0.674,-6.862c-2.12,-2.119 -5.567,-2.119 -7.687,0c-2.119,2.119 -2.119,5.567 0,7.686c0.574,0.575 1.273,1.002 2.032,1.27l0,2.737l1.207,0l0,1.477l-2.844,1.777c-1.243,0.778 -1.986,2.118 -1.986,3.586l0,14.296c0,1.665 1.354,3.019 3.019,3.019l19.324,0c1.468,0 2.691,-1.053 2.962,-2.443c4.073,-0.282 7.304,-3.678 7.304,-7.823l0,-1.208c0,-4.295 -3.469,-7.791 -7.751,-7.845Zm0.505,4.887c1.376,0.28 2.415,1.501 2.415,2.958l0,1.208c0,1.459 -1.039,2.678 -2.415,2.959l0,-7.125Zm-0.604,-19.385l-1.208,0l0,-2.415l1.208,0l0,2.415Zm-9.662,-0.604c0,-0.998 0.813,-1.811 1.811,-1.811l5.435,0l0,2.415l-4.831,0l0,4.831l-2.415,0l0,-5.435Zm-11.223,6.343c-0.346,-0.137 -0.671,-0.32 -0.969,-0.544l2.53,-2.529l2.165,2.165l-2.165,0c-0.669,0 -1.247,0.368 -1.561,0.908Zm4.943,-1.399l-2.528,-2.528l2.528,-2.528c1.118,1.494 1.118,3.562 0,5.056Zm-0.854,-5.91l-2.528,2.528l-2.529,-2.528c1.496,-1.118 3.563,-1.118 5.057,0Zm-5.91,0.854l2.528,2.528l-2.528,2.528c-1.119,-1.494 -1.119,-3.562 0,-5.056Zm22.102,31.514c0,0.998 -0.813,1.811 -1.812,1.811l-19.324,0c-0.998,0 -1.811,-0.813 -1.811,-1.811l0,-14.296c0,-1.048 0.531,-2.006 1.419,-2.561l3.412,-2.133l0,-2.146l10.869,0l0,-1.208l-12.077,0l0,-1.811c0,-0.333 0.271,-0.604 0.604,-0.604l14.493,0c0.333,0 0.604,0.271 0.604,0.604l0,1.811l-2.416,0l0,1.208l1.208,0l0,2.146l3.411,2.133c0.889,0.555 1.42,1.512 1.42,2.561l0,14.296Zm7.246,-7.247c0,3.459 -2.658,6.306 -6.038,6.612l0,-2.433c2.044,-0.295 3.623,-2.054 3.623,-4.179l0,-1.208c0,-2.125 -1.579,-3.884 -3.623,-4.178l0,-1.663c0,-0.264 -0.032,-0.522 -0.079,-0.775c3.417,0.27 6.117,3.131 6.117,6.616l0,1.208Z" style="fill:#d2efeb;fill-rule:nonzero;"/><path d="M6.039,18.116c-1.665,0 -3.02,1.355 -3.02,3.019c0,1.665 1.355,3.02 3.02,3.02c1.665,0 3.019,-1.355 3.019,-3.02c0,-1.664 -1.354,-3.019 -3.019,-3.019Zm0,4.831c-0.999,0 -1.812,-0.813 -1.812,-1.812c0,-0.998 0.813,-1.811 1.812,-1.811c0.999,0 1.811,0.813 1.811,1.811c0,0.999 -0.812,1.812 -1.811,1.812Z" style="fill:#d2efeb;fill-rule:nonzero;"/><path d="M16.305,26.57c-1.999,0 -3.624,1.625 -3.624,3.624c0,1.998 1.625,3.623 3.624,3.623c1.998,0 3.623,-1.625 3.623,-3.623c0,-1.999 -1.625,-3.624 -3.623,-3.624Zm0,6.039c-1.333,0 -2.416,-1.083 -2.416,-2.415c0,-1.333 1.083,-2.416 2.416,-2.416c1.332,0 2.415,1.083 2.415,2.416c0,1.332 -1.083,2.415 -2.415,2.415Z" style="fill:#d2efeb;fill-rule:nonzero;"/><path d="M5.435,27.778c-1.332,0 -2.416,1.083 -2.416,2.416c0,1.332 1.084,2.415 2.416,2.415c1.332,0 2.415,-1.083 2.415,-2.415c0,-1.333 -1.083,-2.416 -2.415,-2.416Zm0,3.623c-0.666,0 -1.208,-0.541 -1.208,-1.207c0,-0.667 0.542,-1.208 1.208,-1.208c0.666,0 1.208,0.541 1.208,1.208c0,0.666 -0.542,1.207 -1.208,1.207Z" style="fill:#d2efeb;fill-rule:nonzero;"/><path d="M19.324,19.324c-1.332,0 -2.416,1.083 -2.416,2.415c0,1.332 1.084,2.416 2.416,2.416c1.332,0 2.415,-1.084 2.415,-2.416c0,-1.332 -1.083,-2.415 -2.415,-2.415Zm0,3.623c-0.666,0 -1.208,-0.542 -1.208,-1.208c0,-0.666 0.542,-1.207 1.208,-1.207c0.666,0 1.208,0.541 1.208,1.207c0,0.666 -0.542,1.208 -1.208,1.208Z" style="fill:#d2efeb;fill-rule:nonzero;"/><path d="M15.701,16.908c0,-1.332 -1.084,-2.415 -2.416,-2.415c-1.332,0 -2.415,1.083 -2.415,2.415c0,1.333 1.083,2.416 2.415,2.416c1.332,0 2.416,-1.083 2.416,-2.416Zm-3.624,0c0,-0.666 0.542,-1.207 1.208,-1.207c0.666,0 1.208,0.541 1.208,1.207c0,0.666 -0.542,1.208 -1.208,1.208c-0.666,0 -1.208,-0.542 -1.208,-1.208Z" style="fill:#d2efeb;fill-rule:nonzero;"/></g><g><path d="M25.818,18.601c-0.341,-0.635 -0.844,-1.183 -1.482,-1.582l-2.844,-1.777l0,-1.477l1.207,0l0,-3.019c0,-0.999 -0.812,-1.812 -1.811,-1.812l-1.208,0l0,-3.623l7.246,0l0,-4.831l-9.058,0c-1.664,0 -3.019,1.354 -3.019,3.019l0,5.435l-3.937,0c1.412,-2.111 1.188,-5 -0.674,-6.862c-2.12,-2.119 -5.567,-2.119 -7.687,0c-2.119,2.119 -2.119,5.567 0,7.686c0.574,0.575 1.273,1.002 2.032,1.27l0,2.737l1.207,0l0,1.477l-2.844,1.777c-1.243,0.778 -1.986,2.118 -1.986,3.586l0,14.296c0,1.665 1.354,3.019 3.019,3.019l19.324,0c1.468,0 2.691,-1.053 2.962,-2.443c4.073,-0.282 7.304,-3.678 7.304,-7.823l0,-1.208c0,-4.295 -3.469,-7.791 -7.751,-7.845Zm0.505,4.887c1.376,0.28 2.415,1.501 2.415,2.958l0,1.208c0,1.459 -1.039,2.678 -2.415,2.959l0,-7.125Zm-0.604,-19.385l-1.208,0l0,-2.415l1.208,0l0,2.415Zm-9.662,-0.604c0,-0.998 0.813,-1.811 1.811,-1.811l5.435,0l0,2.415l-4.831,0l0,4.831l-2.415,0l0,-5.435Zm-11.223,6.343c-0.346,-0.137 -0.671,-0.32 -0.969,-0.544l2.53,-2.529l2.165,2.165l-2.165,0c-0.669,0 -1.247,0.368 -1.561,0.908Zm4.943,-1.399l-2.528,-2.528l2.528,-2.528c1.118,1.494 1.118,3.562 0,5.056Zm-0.854,-5.91l-2.528,2.528l-2.529,-2.528c1.496,-1.118 3.563,-1.118 5.057,0Zm-5.91,0.854l2.528,2.528l-2.528,2.528c-1.119,-1.494 -1.119,-3.562 0,-5.056Zm22.102,31.514c0,0.998 -0.813,1.811 -1.812,1.811l-19.324,0c-0.998,0 -1.811,-0.813 -1.811,-1.811l0,-14.296c0,-1.048 0.531,-2.006 1.419,-2.561l3.412,-2.133l0,-2.146l10.869,0l0,-1.208l-12.077,0l0,-1.811c0,-0.333 0.271,-0.604 0.604,-0.604l14.493,0c0.333,0 0.604,0.271 0.604,0.604l0,1.811l-2.416,0l0,1.208l1.208,0l0,2.146l3.411,2.133c0.889,0.555 1.42,1.512 1.42,2.561l0,14.296Zm7.246,-7.247c0,3.459 -2.658,6.306 -6.038,6.612l0,-2.433c2.044,-0.295 3.623,-2.054 3.623,-4.179l0,-1.208c0,-2.125 -1.579,-3.884 -3.623,-4.178l0,-1.663c0,-0.264 -0.032,-0.522 -0.079,-0.775c3.417,0.27 6.117,3.131 6.117,6.616l0,1.208Z" style="fill:#303441;fill-rule:nonzero;"/><path d="M6.999,18.596c-1.665,0 -3.02,1.355 -3.02,3.019c0,1.665 1.355,3.02 3.02,3.02c1.665,0 3.019,-1.355 3.019,-3.02c0,-1.664 -1.354,-3.019 -3.019,-3.019Zm0,4.831c-0.999,0 -1.812,-0.813 -1.812,-1.812c0,-0.998 0.813,-1.811 1.812,-1.811c0.999,0 1.811,0.813 1.811,1.811c0,0.999 -0.812,1.812 -1.811,1.812Z" style="fill:#303441;fill-rule:nonzero;"/><path d="M17.265,27.05c-1.999,0 -3.624,1.625 -3.624,3.624c0,1.998 1.625,3.623 3.624,3.623c1.998,0 3.623,-1.625 3.623,-3.623c0,-1.999 -1.625,-3.624 -3.623,-3.624Zm0,6.039c-1.333,0 -2.416,-1.083 -2.416,-2.415c0,-1.333 1.083,-2.416 2.416,-2.416c1.332,0 2.415,1.083 2.415,2.416c0,1.332 -1.083,2.415 -2.415,2.415Z" style="fill:#303441;fill-rule:nonzero;"/><path d="M6.395,28.258c-1.332,0 -2.416,1.083 -2.416,2.416c0,1.332 1.084,2.415 2.416,2.415c1.332,0 2.415,-1.083 2.415,-2.415c0,-1.333 -1.083,-2.416 -2.415,-2.416Zm0,3.623c-0.666,0 -1.208,-0.541 -1.208,-1.207c0,-0.667 0.542,-1.208 1.208,-1.208c0.666,0 1.208,0.541 1.208,1.208c0,0.666 -0.542,1.207 -1.208,1.207Z" style="fill:#303441;fill-rule:nonzero;"/><path d="M20.284,19.804c-1.332,0 -2.416,1.083 -2.416,2.415c0,1.332 1.084,2.416 2.416,2.416c1.332,0 2.415,-1.084 2.415,-2.416c0,-1.332 -1.083,-2.415 -2.415,-2.415Zm0,3.623c-0.666,0 -1.208,-0.542 -1.208,-1.208c0,-0.666 0.542,-1.207 1.208,-1.207c0.666,0 1.208,0.541 1.208,1.207c0,0.666 -0.542,1.208 -1.208,1.208Z" style="fill:#303441;fill-rule:nonzero;"/><path d="M16.661,17.388c0,-1.332 -1.084,-2.415 -2.416,-2.415c-1.332,0 -2.415,1.083 -2.415,2.415c0,1.333 1.083,2.416 2.415,2.416c1.332,0 2.416,-1.083 2.416,-2.416Zm-3.624,0c0,-0.666 0.542,-1.207 1.208,-1.207c0.666,0 1.208,0.541 1.208,1.207c0,0.666 -0.542,1.208 -1.208,1.208c-0.666,0 -1.208,-0.542 -1.208,-1.208Z" style="fill:#303441;fill-rule:nonzero;"/></g></svg>