<?xml version="1.0" encoding="UTF-8" standalone="no"?><!DOCTYPE svg PUBLIC "-//W3C//DTD SVG 1.1//EN" "http://www.w3.org/Graphics/SVG/1.1/DTD/svg11.dtd"><svg width="100%" height="100%" viewBox="0 0 44 43" version="1.1" xmlns="http://www.w3.org/2000/svg" xmlns:xlink="http://www.w3.org/1999/xlink" xml:space="preserve" xmlns:serif="http://www.serif.com/" style="fill-rule:evenodd;clip-rule:evenodd;stroke-linejoin:round;stroke-miterlimit:1.41421;"><g><rect x="22.272" y="26.448" width="1.392" height="1.392" style="fill:#e8edf7;"/><rect x="25.056" y="27.84" width="1.392" height="1.392" style="fill:#e8edf7;"/><path d="M21.576,34.104c-1.535,0 -2.784,1.093 -2.784,2.436c0,1.343 1.249,2.436 2.784,2.436c1.535,0 2.784,-1.093 2.784,-2.436c0,-1.343 -1.249,-2.436 -2.784,-2.436Zm0,3.48c-0.754,0 -1.392,-0.478 -1.392,-1.044c0,-0.566 0.638,-1.044 1.392,-1.044c0.754,0 1.392,0.478 1.392,1.044c0,0.566 -0.638,1.044 -1.392,1.044Z" style="fill:#e8edf7;fill-rule:nonzero;"/><path d="M30.624,3.48c-0.111,0 -11.136,0.075 -11.136,2.784l0,2.784c0,0.159 0.041,0.31 0.113,0.451l0.9,14.321c-1.346,0.111 -2.628,0.285 -3.796,0.52l0,-3.46l0,-4.176l0,-3.48c0,-0.1 -0.021,-0.198 -0.063,-0.288l-3.115,-6.853c0.245,-0.342 0.393,-0.759 0.393,-1.211l0,-2.784c0,-1.151 -0.937,-2.088 -2.088,-2.088l-6.96,0c-1.151,0 -2.088,0.937 -2.088,2.088l0,2.784c0,0.452 0.148,0.869 0.393,1.211l-3.114,6.853c-0.042,0.09 -0.063,0.188 -0.063,0.288l0,22.272c0,2.686 2.186,4.872 4.872,4.872l6.96,0c0.546,0 1.079,-0.094 1.592,-0.273c2.506,1.135 6.729,1.665 10.936,1.665c6.261,0 12.563,-1.172 13.165,-3.769c0.035,-0.134 0.059,-0.27 0.059,-0.407l0,-4.773l0,-0.099l2.088,0c0.368,0 0.674,-0.287 0.695,-0.655l1.321,-22.662c0.043,-0.111 0.072,-0.225 0.072,-0.347l0,-2.784c0,-2.709 -11.025,-2.784 -11.136,-2.784Zm9.744,4.228l0,1.228c-0.017,0.019 -0.038,0.038 -0.061,0.056c-0.02,0.016 -0.039,0.032 -0.064,0.048c-0.037,0.024 -0.082,0.049 -0.13,0.075c-0.03,0.016 -0.06,0.032 -0.094,0.049c-0.053,0.025 -0.115,0.051 -0.179,0.077c-0.041,0.016 -0.08,0.033 -0.125,0.05c-0.068,0.026 -0.145,0.051 -0.222,0.077c-0.051,0.018 -0.101,0.034 -0.156,0.052c-0.083,0.025 -0.172,0.05 -0.262,0.076c-0.062,0.017 -0.122,0.034 -0.187,0.052c-0.094,0.024 -0.195,0.048 -0.295,0.074c-0.073,0.017 -0.144,0.035 -0.22,0.052c-0.104,0.024 -0.215,0.048 -0.326,0.071c-0.083,0.017 -0.163,0.034 -0.249,0.052c-0.113,0.022 -0.233,0.044 -0.351,0.065c-0.093,0.018 -0.185,0.035 -0.281,0.052c-0.121,0.021 -0.248,0.04 -0.373,0.06c-0.104,0.017 -0.205,0.034 -0.312,0.05c-0.128,0.019 -0.261,0.036 -0.393,0.054c-0.112,0.015 -0.222,0.031 -0.338,0.046c-0.139,0.017 -0.284,0.033 -0.427,0.05c-0.115,0.013 -0.227,0.027 -0.344,0.04c-0.15,0.016 -0.306,0.03 -0.46,0.044c-0.118,0.011 -0.233,0.023 -0.354,0.034c-0.152,0.013 -0.31,0.023 -0.466,0.035c-0.127,0.009 -0.252,0.019 -0.381,0.027c-0.17,0.012 -0.344,0.019 -0.517,0.028c-0.118,0.006 -0.235,0.014 -0.355,0.019c-0.202,0.009 -0.408,0.015 -0.614,0.02c-0.096,0.003 -0.19,0.007 -0.286,0.009c-0.305,0.007 -0.612,0.01 -0.922,0.01c-0.31,0 -0.617,-0.003 -0.921,-0.01c-0.081,-0.003 -0.161,-0.006 -0.242,-0.008c-0.221,-0.006 -0.443,-0.013 -0.661,-0.022c-0.082,-0.004 -0.162,-0.009 -0.245,-0.014c-0.212,-0.01 -0.425,-0.02 -0.634,-0.034c-0.071,-0.005 -0.138,-0.011 -0.208,-0.016c-0.218,-0.015 -0.435,-0.03 -0.646,-0.048c-0.05,-0.005 -0.098,-0.01 -0.149,-0.014c-0.228,-0.021 -0.455,-0.042 -0.675,-0.065c-0.029,-0.004 -0.057,-0.007 -0.086,-0.01c-0.237,-0.026 -0.47,-0.053 -0.696,-0.081c-0.016,-0.002 -0.031,-0.004 -0.048,-0.007c-2.451,-0.316 -4.195,-0.802 -4.534,-1.183l0,-1.22c0.018,0.007 0.04,0.014 0.058,0.022c0.148,0.062 0.304,0.122 0.468,0.179c0.043,0.014 0.085,0.03 0.129,0.044c0.184,0.061 0.375,0.119 0.576,0.173c0.043,0.012 0.087,0.022 0.131,0.033c0.178,0.047 0.36,0.091 0.547,0.132c0.044,0.01 0.087,0.021 0.132,0.03c0.216,0.047 0.437,0.09 0.661,0.131c0.056,0.01 0.112,0.019 0.169,0.029c0.202,0.035 0.406,0.068 0.612,0.099c0.035,0.005 0.069,0.011 0.103,0.016c0.233,0.034 0.466,0.065 0.7,0.094c0.06,0.008 0.121,0.015 0.181,0.023c0.229,0.027 0.457,0.052 0.682,0.075c0.014,0.002 0.027,0.003 0.041,0.005c0.229,0.023 0.454,0.043 0.677,0.062c0.056,0.005 0.112,0.01 0.168,0.015c0.22,0.018 0.436,0.035 0.646,0.049c0.034,0.003 0.067,0.004 0.101,0.007c0.187,0.013 0.369,0.025 0.545,0.034c0.045,0.003 0.091,0.006 0.134,0.008c0.193,0.01 0.376,0.02 0.55,0.028c0.037,0.001 0.071,0.003 0.107,0.005c0.152,0.007 0.297,0.012 0.432,0.017c0.026,0.001 0.054,0.002 0.08,0.003c0.149,0.005 0.283,0.009 0.406,0.012c0.03,0.001 0.055,0.002 0.084,0.002c0.11,0.003 0.21,0.005 0.293,0.007c0.003,0 0.008,0 0.012,0c0.087,0.002 0.153,0.003 0.205,0.004c0.023,0 0.034,0.001 0.05,0.001c0.036,0.001 0.061,0.001 0.065,0.001c0.004,0 0.029,0 0.064,-0.001c0.016,0 0.026,0 0.049,0c0.053,-0.001 0.119,-0.002 0.206,-0.004c0.003,0 0.008,0 0.012,0c0.082,-0.001 0.183,-0.004 0.293,-0.007c0.028,-0.001 0.054,-0.001 0.084,-0.002c0.122,-0.003 0.257,-0.008 0.406,-0.012c0.026,-0.001 0.053,-0.003 0.08,-0.003c0.135,-0.005 0.279,-0.011 0.432,-0.018c0.036,-0.001 0.069,-0.002 0.106,-0.005c0.174,-0.008 0.358,-0.017 0.55,-0.027c0.045,-0.003 0.089,-0.005 0.135,-0.008c0.176,-0.01 0.357,-0.022 0.544,-0.034c0.035,-0.002 0.067,-0.004 0.102,-0.007c0.21,-0.015 0.425,-0.031 0.645,-0.049c0.056,-0.005 0.112,-0.01 0.169,-0.015c0.222,-0.02 0.448,-0.04 0.677,-0.063c0.013,-0.001 0.027,-0.003 0.04,-0.004c0.226,-0.023 0.454,-0.049 0.682,-0.076c0.061,-0.007 0.121,-0.014 0.182,-0.022c0.234,-0.029 0.467,-0.06 0.7,-0.094c0.034,-0.005 0.068,-0.011 0.103,-0.016c0.206,-0.031 0.41,-0.064 0.612,-0.1c0.056,-0.009 0.113,-0.019 0.169,-0.029c0.224,-0.04 0.446,-0.083 0.661,-0.13c0.045,-0.01 0.088,-0.02 0.132,-0.03c0.187,-0.042 0.37,-0.085 0.548,-0.132c0.043,-0.011 0.087,-0.022 0.13,-0.034c0.2,-0.054 0.392,-0.112 0.577,-0.172c0.044,-0.015 0.085,-0.029 0.128,-0.045c0.163,-0.057 0.321,-0.116 0.468,-0.179c0.018,-0.008 0.04,-0.015 0.058,-0.022Zm-0.133,-1.445c-0.003,0.002 -0.004,0.004 -0.008,0.007c-0.012,0.007 -0.03,0.016 -0.043,0.023c-0.055,0.032 -0.113,0.064 -0.183,0.097c-0.025,0.011 -0.055,0.022 -0.081,0.034c-0.068,0.03 -0.139,0.059 -0.219,0.09c-0.035,0.012 -0.074,0.025 -0.11,0.038c-0.083,0.029 -0.167,0.058 -0.26,0.086c-0.044,0.014 -0.093,0.028 -0.139,0.041c-0.094,0.028 -0.192,0.055 -0.295,0.083c-0.054,0.014 -0.11,0.028 -0.166,0.042c-0.106,0.027 -0.214,0.054 -0.329,0.079c-0.062,0.015 -0.128,0.029 -0.193,0.044c-0.117,0.025 -0.236,0.05 -0.36,0.075c-0.071,0.014 -0.143,0.028 -0.216,0.042c-0.126,0.025 -0.255,0.048 -0.387,0.071c-0.08,0.014 -0.161,0.028 -0.243,0.041c-0.134,0.023 -0.272,0.044 -0.411,0.066c-0.088,0.013 -0.176,0.026 -0.266,0.039c-0.14,0.021 -0.284,0.04 -0.43,0.059c-0.096,0.012 -0.192,0.025 -0.29,0.037c-0.147,0.018 -0.297,0.035 -0.449,0.051c-0.103,0.011 -0.205,0.023 -0.31,0.034c-0.153,0.015 -0.309,0.03 -0.467,0.043c-0.108,0.01 -0.215,0.021 -0.325,0.03c-0.161,0.013 -0.326,0.025 -0.49,0.036c-0.111,0.008 -0.22,0.016 -0.332,0.023c-0.172,0.01 -0.348,0.019 -0.524,0.028c-0.109,0.005 -0.216,0.012 -0.325,0.016c-0.194,0.008 -0.392,0.014 -0.59,0.019c-0.094,0.003 -0.187,0.006 -0.281,0.009c-0.293,0.007 -0.59,0.01 -0.889,0.01c-0.299,0 -0.596,-0.003 -0.889,-0.01c-0.095,-0.002 -0.187,-0.006 -0.281,-0.008c-0.198,-0.006 -0.395,-0.011 -0.59,-0.02c-0.109,-0.004 -0.216,-0.011 -0.325,-0.016c-0.176,-0.009 -0.352,-0.017 -0.524,-0.027c-0.112,-0.007 -0.222,-0.016 -0.332,-0.023c-0.164,-0.012 -0.328,-0.023 -0.489,-0.037c-0.11,-0.009 -0.218,-0.019 -0.326,-0.029c-0.156,-0.014 -0.314,-0.028 -0.466,-0.044c-0.104,-0.01 -0.207,-0.022 -0.31,-0.033c-0.151,-0.017 -0.302,-0.033 -0.449,-0.052c-0.098,-0.011 -0.194,-0.024 -0.29,-0.036c-0.145,-0.019 -0.289,-0.039 -0.43,-0.059c-0.09,-0.012 -0.177,-0.026 -0.265,-0.04c-0.14,-0.021 -0.277,-0.043 -0.411,-0.065c-0.083,-0.014 -0.163,-0.027 -0.243,-0.041c-0.133,-0.023 -0.262,-0.047 -0.387,-0.071c-0.073,-0.014 -0.146,-0.028 -0.217,-0.042c-0.124,-0.025 -0.243,-0.05 -0.36,-0.076c-0.065,-0.014 -0.13,-0.028 -0.193,-0.043c-0.114,-0.026 -0.223,-0.053 -0.329,-0.079c-0.055,-0.014 -0.112,-0.028 -0.166,-0.043c-0.104,-0.028 -0.2,-0.055 -0.295,-0.082c-0.047,-0.014 -0.095,-0.028 -0.139,-0.042c-0.094,-0.028 -0.178,-0.057 -0.26,-0.086c-0.036,-0.012 -0.076,-0.025 -0.11,-0.038c-0.081,-0.03 -0.152,-0.06 -0.22,-0.09c-0.026,-0.011 -0.056,-0.023 -0.08,-0.034c-0.07,-0.033 -0.129,-0.065 -0.183,-0.097c-0.013,-0.007 -0.031,-0.016 -0.044,-0.023c-0.003,-0.003 -0.004,-0.005 -0.007,-0.007c0.948,-0.607 4.98,-1.391 9.61,-1.391c4.63,0 8.662,0.784 9.611,1.391Zm-18.95,18.896c1.027,-0.068 2.062,-0.103 3.075,-0.103c0.48,0 0.944,0.007 1.395,0.019c0.013,1.527 1.566,2.765 3.477,2.765c1.553,0 2.856,-0.824 3.303,-1.95c2.433,0.599 3.657,1.395 3.657,1.95c0,0.999 -3.954,2.784 -11.832,2.784c-0.529,0 -1.036,-0.009 -1.53,-0.024c0.088,-0.218 0.138,-0.442 0.138,-0.672c0,-1.587 -2.095,-2.784 -4.872,-2.784c-2.101,0 -3.818,0.688 -4.521,1.723c-0.369,-0.196 -0.641,-0.39 -0.814,-0.575c-0.027,-0.053 -0.05,-0.11 -0.09,-0.156l-0.021,0.015c-0.001,-0.002 -0.002,-0.003 -0.003,-0.005l0.017,-0.019c-0.018,-0.023 -0.043,-0.034 -0.063,-0.054c-0.01,-0.029 -0.006,-0.06 -0.02,-0.088c-0.004,-0.008 -0.01,-0.018 -0.017,-0.032c-0.004,-0.007 -0.009,-0.016 -0.014,-0.025c-0.007,-0.028 -0.022,-0.059 -0.022,-0.088c0,-0.037 0.017,-0.077 0.027,-0.115c0.165,-0.415 1.185,-1.14 3.62,-1.743c0.11,-0.027 0.202,-0.086 0.283,-0.156c1.289,-0.299 2.896,-0.54 4.817,-0.668c0.004,0 0.007,0.002 0.01,0.001Zm8.809,0.271c0.066,0.009 0.133,0.018 0.197,0.028c0.231,0.034 0.456,0.071 0.679,0.11c0.06,0.01 0.119,0.02 0.177,0.032c-0.324,0.493 -1.07,0.848 -1.915,0.848c-1.089,0 -2.016,-0.591 -2.084,-1.308c1.042,0.062 2.026,0.16 2.946,0.29Zm4.01,10.066c0,-1.151 0.937,-2.088 2.088,-2.088l0,4.176c-1.151,0 -2.088,-0.937 -2.088,-2.088Zm-12.934,-4.982c-0.243,-0.017 -0.488,-0.033 -0.72,-0.054c-0.113,-0.009 -0.223,-0.021 -0.334,-0.032c-0.251,-0.024 -0.495,-0.05 -0.733,-0.078c-0.104,-0.011 -0.208,-0.024 -0.31,-0.036c-0.687,-0.088 -1.323,-0.19 -1.902,-0.304c-0.011,-0.002 -0.023,-0.005 -0.034,-0.007c-0.862,-0.171 -1.597,-0.369 -2.218,-0.576c0.509,-0.456 1.648,-0.891 3.177,-0.891c2.124,0 3.48,0.825 3.48,1.392c0,0.18 -0.146,0.388 -0.406,0.586Zm-8.642,2.198c0.384,0 0.696,0.312 0.696,0.696c0,0.384 -0.312,0.696 -0.696,0.696l0,-1.392Zm-11.136,-15.312l3.348,0c0.248,0 0.478,-0.132 0.602,-0.347c0.621,-1.074 1.775,-1.741 3.01,-1.741c1.235,0 2.389,0.667 3.01,1.741c0.125,0.215 0.354,0.347 0.602,0.347l3.348,0l0,2.784l-3.348,0c-0.248,0 -0.478,0.132 -0.602,0.347c-0.621,1.074 -1.775,1.741 -3.01,1.741c-1.235,0 -2.389,-0.667 -3.01,-1.741c-0.125,-0.215 -0.354,-0.347 -0.602,-0.347l-3.348,0l0,-2.784Zm2.784,-15.312c0,-0.384 0.312,-0.696 0.696,-0.696l6.96,0c0.384,0 0.696,0.312 0.696,0.696l0,2.784c0,0.249 -0.139,0.457 -0.335,0.58c-0.09,0.06 -0.206,0.116 -0.361,0.116l-6.96,0c-0.155,0 -0.271,-0.056 -0.361,-0.116c-0.196,-0.123 -0.335,-0.331 -0.335,-0.58l0,-2.784Zm0.164,4.802c0.013,0.003 0.027,0.002 0.04,0.005c0.159,0.039 0.322,0.065 0.492,0.065l6.96,0c0.17,0 0.333,-0.026 0.491,-0.065c0.014,-0.003 0.028,-0.002 0.041,-0.005l2.948,6.485l0,2.633l-2.966,0c-0.907,-1.297 -2.401,-2.088 -3.994,-2.088c-1.593,0 -3.088,0.791 -3.994,2.088l-2.966,0l0,-2.633l2.948,-6.485Zm-2.948,28.606l0,-13.92l2.966,0c0.907,1.297 2.401,2.088 3.994,2.088c1.593,0 3.088,-0.791 3.994,-2.088l2.966,0l0,3.086c-2.217,0.606 -3.779,1.498 -4.106,2.702c-0.046,0.154 -0.07,0.313 -0.07,0.476l0,9.744c0,0.147 0.025,0.29 0.063,0.431c0.021,0.088 0.055,0.172 0.089,0.257c0.009,0.021 0.018,0.041 0.028,0.062c0.101,0.225 0.238,0.441 0.425,0.642l-6.869,0c-1.919,0 -3.48,-1.561 -3.48,-3.48Zm12.688,3.356c-0.064,-0.076 -0.139,-0.143 -0.232,-0.186c-0.832,-0.385 -1.202,-0.742 -1.294,-0.973c-0.01,-0.037 -0.026,-0.074 -0.026,-0.109l0,-2.088c1.151,0 2.088,-0.937 2.088,-2.088c0,-1.151 -0.937,-2.088 -2.088,-2.088l0,-1.439c0.082,0.052 0.175,0.101 0.263,0.152c0.045,0.025 0.086,0.052 0.132,0.077c0.197,0.106 0.408,0.208 0.632,0.305c0.043,0.019 0.09,0.036 0.134,0.054c0.191,0.08 0.39,0.156 0.597,0.229c0.069,0.024 0.137,0.048 0.208,0.071c0.232,0.078 0.473,0.152 0.723,0.222c0.027,0.008 0.053,0.016 0.08,0.024c0.281,0.077 0.574,0.148 0.875,0.217c0.073,0.016 0.149,0.032 0.224,0.048c0.243,0.053 0.49,0.102 0.743,0.148c0.077,0.014 0.154,0.029 0.232,0.042c0.322,0.057 0.65,0.109 0.985,0.156c0.036,0.005 0.073,0.009 0.109,0.014c0.277,0.038 0.558,0.073 0.843,0.105c0.046,0.006 0.093,0.011 0.14,0.016c0.075,0.009 0.151,0.016 0.225,0.023c0.176,0.018 0.351,0.036 0.528,0.052c0.071,0.006 0.14,0.014 0.211,0.021l0.176,0.013c0.007,0.001 0.013,0.001 0.019,0.001c0.047,0.004 0.093,0.008 0.139,0.011c0.355,0.028 0.714,0.05 1.076,0.069c0.087,0.005 0.175,0.008 0.262,0.012c0.286,0.013 0.573,0.024 0.862,0.032c0.103,0.003 0.206,0.006 0.309,0.008c0.369,0.007 0.737,0.013 1.105,0.013c0.368,0 0.736,-0.006 1.103,-0.014c0.104,-0.002 0.206,-0.005 0.31,-0.008c0.288,-0.009 0.575,-0.019 0.862,-0.032c0.087,-0.004 0.174,-0.007 0.261,-0.012c0.362,-0.019 0.721,-0.042 1.078,-0.069c0.066,-0.005 0.133,-0.012 0.199,-0.017c0.295,-0.023 0.586,-0.051 0.874,-0.08c0.097,-0.01 0.193,-0.021 0.289,-0.031c0.311,-0.034 0.618,-0.072 0.919,-0.114c0.036,-0.004 0.073,-0.009 0.109,-0.013c0.335,-0.048 0.663,-0.101 0.985,-0.156c0.078,-0.014 0.154,-0.029 0.232,-0.043c0.253,-0.046 0.5,-0.096 0.743,-0.147c0.075,-0.016 0.151,-0.032 0.224,-0.049c0.301,-0.068 0.594,-0.139 0.875,-0.217c0.027,-0.007 0.053,-0.016 0.08,-0.023c0.25,-0.07 0.491,-0.144 0.724,-0.222c0.07,-0.023 0.139,-0.047 0.208,-0.071c0.207,-0.073 0.406,-0.148 0.597,-0.228c0.044,-0.018 0.09,-0.035 0.133,-0.054c0.225,-0.098 0.435,-0.199 0.632,-0.306c0.046,-0.025 0.088,-0.05 0.133,-0.076c0.088,-0.05 0.181,-0.1 0.263,-0.153l0,2.135c-1.919,0 -3.48,1.561 -3.48,3.48c0,1.468 0.916,2.719 2.204,3.23c-1.739,0.833 -5.255,1.642 -10.557,1.642c-5.035,0 -8.458,-0.729 -10.28,-1.516Zm24.936,-7.532l-1.432,0l0,-3.48c0,-2.885 -6.642,-4.176 -13.224,-4.176c-0.827,0 -1.654,0.02 -2.47,0.062l-0.826,-13.147c2.29,0.894 6.665,1.249 9.514,1.252l0.093,0c2.892,-0.003 7.276,-0.364 9.556,-1.27l-1.211,20.759Z" style="fill:#e8edf7;fill-rule:nonzero;"/><path d="M30.624,16.103c-0.95,-1.715 -2.777,-2.879 -4.872,-2.879l-0.696,0c-0.385,0 -0.696,0.311 -0.696,0.696l0,0.696c0,3.07 2.498,5.568 5.568,5.568l0,2.088l1.392,0l0,-2.088c3.07,0 5.568,-2.498 5.568,-5.568l0,-0.696c0,-0.385 -0.311,-0.696 -0.696,-0.696l-0.696,0c-2.095,0 -3.922,1.164 -4.872,2.879Zm-4.872,-1.487c2.303,0 4.176,1.873 4.176,4.176c-2.303,0 -4.176,-1.873 -4.176,-4.176Zm9.744,0c0,2.303 -1.873,4.176 -4.176,4.176c0,-2.303 1.873,-4.176 4.176,-4.176Z" style="fill:#e8edf7;fill-rule:nonzero;"/></g><g><rect x="23.583" y="27.408" width="1.392" height="1.392" style="fill:#303441;"/><rect x="26.367" y="28.8" width="1.392" height="1.392" style="fill:#303441;"/><path d="M22.887,35.064c-1.535,0 -2.784,1.093 -2.784,2.436c0,1.343 1.249,2.436 2.784,2.436c1.536,0 2.784,-1.093 2.784,-2.436c0,-1.343 -1.248,-2.436 -2.784,-2.436Zm0,3.48c-0.754,0 -1.392,-0.478 -1.392,-1.044c0,-0.566 0.638,-1.044 1.392,-1.044c0.755,0 1.392,0.478 1.392,1.044c0,0.566 -0.637,1.044 -1.392,1.044Z" style="fill:#303441;fill-rule:nonzero;"/><path d="M31.935,4.44c-0.111,0 -11.136,0.075 -11.136,2.784l0,2.784c0,0.159 0.041,0.31 0.114,0.451l0.9,14.321c-1.347,0.111 -2.629,0.285 -3.797,0.52l0,-3.46l0,-4.176l0,-3.48c0,-0.1 -0.021,-0.198 -0.063,-0.288l-3.115,-6.853c0.245,-0.342 0.393,-0.759 0.393,-1.211l0,-2.784c0,-1.151 -0.937,-2.088 -2.088,-2.088l-6.96,0c-1.151,0 -2.088,0.937 -2.088,2.088l0,2.784c0,0.452 0.148,0.869 0.393,1.211l-3.114,6.853c-0.042,0.09 -0.063,0.188 -0.063,0.288l0,22.272c0,2.686 2.186,4.872 4.872,4.872l6.96,0c0.546,0 1.079,-0.094 1.592,-0.273c2.506,1.135 6.729,1.665 10.936,1.665c6.261,0 12.564,-1.172 13.165,-3.769c0.035,-0.134 0.059,-0.27 0.059,-0.407l0,-4.773l0,-0.099l2.088,0c0.368,0 0.674,-0.287 0.695,-0.655l1.321,-22.662c0.043,-0.111 0.072,-0.225 0.072,-0.347l0,-2.784c0,-2.709 -11.025,-2.784 -11.136,-2.784Zm9.744,4.228l0,1.228c-0.017,0.019 -0.037,0.038 -0.061,0.056c-0.02,0.016 -0.039,0.032 -0.063,0.048c-0.038,0.024 -0.083,0.049 -0.131,0.075c-0.03,0.016 -0.059,0.032 -0.094,0.049c-0.053,0.025 -0.115,0.051 -0.178,0.077c-0.041,0.016 -0.08,0.033 -0.126,0.05c-0.068,0.026 -0.144,0.051 -0.222,0.077c-0.051,0.018 -0.101,0.034 -0.156,0.052c-0.082,0.025 -0.172,0.05 -0.262,0.076c-0.062,0.017 -0.122,0.034 -0.187,0.052c-0.094,0.024 -0.195,0.048 -0.295,0.074c-0.073,0.017 -0.144,0.035 -0.22,0.052c-0.104,0.024 -0.215,0.048 -0.326,0.071c-0.083,0.017 -0.163,0.034 -0.249,0.052c-0.113,0.022 -0.233,0.044 -0.351,0.065c-0.093,0.018 -0.184,0.035 -0.281,0.052c-0.121,0.021 -0.248,0.04 -0.373,0.06c-0.104,0.017 -0.205,0.034 -0.312,0.05c-0.127,0.019 -0.261,0.036 -0.393,0.054c-0.112,0.015 -0.222,0.031 -0.338,0.046c-0.139,0.017 -0.284,0.033 -0.427,0.05c-0.115,0.013 -0.227,0.027 -0.344,0.04c-0.15,0.016 -0.306,0.03 -0.46,0.044c-0.118,0.011 -0.233,0.023 -0.354,0.034c-0.152,0.013 -0.31,0.023 -0.466,0.035c-0.127,0.009 -0.252,0.019 -0.381,0.027c-0.169,0.012 -0.343,0.019 -0.517,0.028c-0.118,0.006 -0.235,0.014 -0.355,0.019c-0.202,0.009 -0.408,0.015 -0.614,0.02c-0.096,0.003 -0.19,0.007 -0.286,0.009c-0.305,0.007 -0.612,0.01 -0.922,0.01c-0.31,0 -0.617,-0.003 -0.921,-0.01c-0.081,-0.003 -0.161,-0.006 -0.242,-0.008c-0.221,-0.006 -0.443,-0.013 -0.66,-0.022c-0.083,-0.004 -0.163,-0.009 -0.245,-0.014c-0.213,-0.01 -0.426,-0.02 -0.635,-0.034c-0.07,-0.005 -0.138,-0.011 -0.208,-0.016c-0.218,-0.015 -0.435,-0.03 -0.646,-0.048c-0.05,-0.005 -0.098,-0.01 -0.148,-0.014c-0.229,-0.021 -0.456,-0.042 -0.675,-0.065c-0.03,-0.004 -0.058,-0.007 -0.087,-0.01c-0.236,-0.026 -0.47,-0.053 -0.696,-0.081c-0.016,-0.002 -0.031,-0.004 -0.048,-0.007c-2.45,-0.316 -4.195,-0.802 -4.534,-1.183l0,-1.22c0.019,0.007 0.04,0.014 0.058,0.022c0.148,0.062 0.304,0.122 0.469,0.179c0.042,0.014 0.084,0.03 0.128,0.044c0.184,0.061 0.376,0.119 0.576,0.173c0.043,0.012 0.087,0.022 0.131,0.033c0.178,0.047 0.36,0.091 0.548,0.132c0.043,0.01 0.087,0.021 0.131,0.03c0.216,0.047 0.437,0.09 0.661,0.131c0.056,0.01 0.112,0.019 0.169,0.029c0.202,0.035 0.406,0.068 0.612,0.099c0.035,0.005 0.069,0.011 0.103,0.016c0.233,0.034 0.466,0.065 0.7,0.094c0.06,0.008 0.121,0.015 0.181,0.023c0.229,0.027 0.457,0.052 0.682,0.075c0.014,0.002 0.028,0.003 0.041,0.005c0.229,0.023 0.454,0.043 0.677,0.062c0.056,0.005 0.112,0.01 0.168,0.015c0.22,0.018 0.436,0.035 0.646,0.049c0.034,0.003 0.067,0.004 0.101,0.007c0.187,0.013 0.369,0.025 0.545,0.034c0.045,0.003 0.091,0.006 0.135,0.008c0.192,0.01 0.375,0.02 0.549,0.028c0.037,0.001 0.071,0.003 0.107,0.005c0.152,0.007 0.297,0.012 0.432,0.017c0.027,0.001 0.054,0.002 0.08,0.003c0.149,0.005 0.283,0.009 0.406,0.012c0.031,0.001 0.056,0.002 0.084,0.002c0.11,0.003 0.21,0.005 0.293,0.007c0.004,0 0.008,0 0.012,0c0.087,0.002 0.153,0.003 0.205,0.004c0.023,0 0.034,0.001 0.05,0.001c0.036,0.001 0.061,0.001 0.065,0.001c0.004,0 0.029,0 0.064,-0.001c0.016,0 0.027,0 0.05,0c0.052,-0.001 0.118,-0.002 0.205,-0.004c0.003,0 0.008,0 0.012,0c0.083,-0.001 0.183,-0.004 0.293,-0.007c0.028,-0.001 0.054,-0.001 0.084,-0.002c0.122,-0.003 0.257,-0.008 0.406,-0.012c0.026,-0.001 0.053,-0.003 0.08,-0.003c0.135,-0.005 0.28,-0.011 0.432,-0.018c0.036,-0.001 0.07,-0.002 0.106,-0.005c0.174,-0.008 0.358,-0.017 0.55,-0.027c0.045,-0.003 0.089,-0.005 0.135,-0.008c0.176,-0.01 0.357,-0.022 0.545,-0.034c0.034,-0.002 0.066,-0.004 0.101,-0.007c0.21,-0.015 0.425,-0.031 0.645,-0.049c0.056,-0.005 0.112,-0.01 0.169,-0.015c0.223,-0.02 0.448,-0.04 0.677,-0.063c0.013,-0.001 0.027,-0.003 0.04,-0.004c0.226,-0.023 0.454,-0.049 0.683,-0.076c0.06,-0.007 0.121,-0.014 0.181,-0.022c0.234,-0.029 0.467,-0.06 0.7,-0.094c0.034,-0.005 0.069,-0.011 0.103,-0.016c0.206,-0.031 0.41,-0.064 0.612,-0.1c0.057,-0.009 0.113,-0.019 0.169,-0.029c0.224,-0.04 0.446,-0.083 0.661,-0.13c0.045,-0.01 0.088,-0.02 0.132,-0.03c0.187,-0.042 0.37,-0.085 0.548,-0.132c0.043,-0.011 0.087,-0.022 0.131,-0.034c0.199,-0.054 0.391,-0.112 0.576,-0.172c0.044,-0.015 0.086,-0.029 0.128,-0.045c0.164,-0.057 0.321,-0.116 0.468,-0.179c0.018,-0.008 0.04,-0.015 0.058,-0.022Zm-0.133,-1.445c-0.003,0.002 -0.004,0.004 -0.007,0.007c-0.013,0.007 -0.031,0.016 -0.044,0.023c-0.055,0.032 -0.113,0.064 -0.183,0.097c-0.025,0.011 -0.055,0.022 -0.08,0.034c-0.069,0.03 -0.14,0.059 -0.22,0.09c-0.034,0.012 -0.074,0.025 -0.11,0.038c-0.082,0.029 -0.167,0.058 -0.26,0.086c-0.044,0.014 -0.092,0.028 -0.138,0.041c-0.095,0.028 -0.193,0.055 -0.296,0.083c-0.054,0.014 -0.11,0.028 -0.166,0.042c-0.106,0.027 -0.214,0.054 -0.328,0.079c-0.063,0.015 -0.128,0.029 -0.194,0.044c-0.117,0.025 -0.236,0.05 -0.36,0.075c-0.071,0.014 -0.143,0.028 -0.216,0.042c-0.126,0.025 -0.255,0.048 -0.387,0.071c-0.08,0.014 -0.161,0.028 -0.243,0.041c-0.134,0.023 -0.271,0.044 -0.411,0.066c-0.088,0.013 -0.176,0.026 -0.266,0.039c-0.14,0.021 -0.284,0.04 -0.43,0.059c-0.096,0.012 -0.192,0.025 -0.29,0.037c-0.147,0.018 -0.297,0.035 -0.449,0.051c-0.103,0.011 -0.204,0.023 -0.31,0.034c-0.153,0.015 -0.309,0.03 -0.467,0.043c-0.108,0.01 -0.215,0.021 -0.325,0.03c-0.161,0.013 -0.326,0.025 -0.49,0.036c-0.111,0.008 -0.22,0.016 -0.332,0.023c-0.172,0.01 -0.348,0.019 -0.524,0.028c-0.109,0.005 -0.215,0.012 -0.325,0.016c-0.194,0.008 -0.392,0.014 -0.59,0.019c-0.094,0.003 -0.186,0.006 -0.28,0.009c-0.294,0.007 -0.591,0.01 -0.89,0.01c-0.299,0 -0.596,-0.003 -0.889,-0.01c-0.095,-0.002 -0.187,-0.006 -0.281,-0.008c-0.198,-0.006 -0.395,-0.011 -0.59,-0.02c-0.109,-0.004 -0.216,-0.011 -0.324,-0.016c-0.176,-0.009 -0.353,-0.017 -0.525,-0.027c-0.112,-0.007 -0.221,-0.016 -0.331,-0.023c-0.165,-0.012 -0.329,-0.023 -0.49,-0.037c-0.11,-0.009 -0.218,-0.019 -0.325,-0.029c-0.157,-0.014 -0.314,-0.028 -0.467,-0.044c-0.104,-0.01 -0.207,-0.022 -0.31,-0.033c-0.151,-0.017 -0.302,-0.033 -0.448,-0.052c-0.099,-0.011 -0.195,-0.024 -0.291,-0.036c-0.145,-0.019 -0.289,-0.039 -0.43,-0.059c-0.09,-0.012 -0.177,-0.026 -0.265,-0.04c-0.14,-0.021 -0.277,-0.043 -0.411,-0.065c-0.082,-0.014 -0.163,-0.027 -0.243,-0.041c-0.132,-0.023 -0.262,-0.047 -0.387,-0.071c-0.073,-0.014 -0.146,-0.028 -0.217,-0.042c-0.124,-0.025 -0.243,-0.05 -0.359,-0.076c-0.066,-0.014 -0.131,-0.028 -0.194,-0.043c-0.114,-0.026 -0.223,-0.053 -0.328,-0.079c-0.056,-0.014 -0.113,-0.028 -0.167,-0.043c-0.104,-0.028 -0.2,-0.055 -0.295,-0.082c-0.047,-0.014 -0.095,-0.028 -0.139,-0.042c-0.093,-0.028 -0.178,-0.057 -0.26,-0.086c-0.036,-0.012 -0.076,-0.025 -0.11,-0.038c-0.081,-0.03 -0.151,-0.06 -0.22,-0.09c-0.025,-0.011 -0.056,-0.023 -0.08,-0.034c-0.07,-0.033 -0.128,-0.065 -0.183,-0.097c-0.013,-0.007 -0.031,-0.016 -0.044,-0.023c-0.003,-0.003 -0.004,-0.005 -0.007,-0.007c0.948,-0.607 4.98,-1.391 9.61,-1.391c4.631,0 8.663,0.784 9.611,1.391Zm-18.95,18.896c1.028,-0.068 2.062,-0.103 3.075,-0.103c0.48,0 0.944,0.007 1.395,0.019c0.013,1.527 1.567,2.765 3.477,2.765c1.554,0 2.857,-0.824 3.303,-1.95c2.434,0.599 3.657,1.395 3.657,1.95c0,0.999 -3.954,2.784 -11.832,2.784c-0.529,0 -1.036,-0.009 -1.53,-0.024c0.088,-0.218 0.138,-0.442 0.138,-0.672c0,-1.587 -2.095,-2.784 -4.872,-2.784c-2.101,0 -3.818,0.688 -4.521,1.723c-0.369,-0.196 -0.641,-0.39 -0.814,-0.575c-0.027,-0.053 -0.05,-0.11 -0.09,-0.156l-0.02,0.015c-0.002,-0.002 -0.003,-0.003 -0.004,-0.005l0.018,-0.019c-0.019,-0.023 -0.044,-0.034 -0.064,-0.054c-0.01,-0.029 -0.006,-0.06 -0.02,-0.088c-0.003,-0.008 -0.01,-0.018 -0.017,-0.032c-0.004,-0.007 -0.009,-0.016 -0.014,-0.025c-0.007,-0.028 -0.022,-0.059 -0.022,-0.088c0,-0.037 0.017,-0.077 0.027,-0.115c0.165,-0.415 1.186,-1.14 3.62,-1.743c0.11,-0.027 0.202,-0.086 0.283,-0.156c1.289,-0.299 2.896,-0.54 4.817,-0.668c0.004,0 0.007,0.002 0.01,0.001Zm8.809,0.271c0.066,0.009 0.133,0.018 0.197,0.028c0.231,0.034 0.456,0.071 0.679,0.11c0.06,0.01 0.119,0.02 0.178,0.032c-0.325,0.493 -1.071,0.848 -1.916,0.848c-1.089,0 -2.015,-0.591 -2.084,-1.308c1.042,0.062 2.026,0.16 2.946,0.29Zm4.01,10.066c0,-1.151 0.937,-2.088 2.088,-2.088l0,4.176c-1.151,0 -2.088,-0.937 -2.088,-2.088Zm-12.934,-4.982c-0.243,-0.017 -0.488,-0.033 -0.72,-0.054c-0.113,-0.009 -0.223,-0.021 -0.334,-0.032c-0.251,-0.024 -0.495,-0.05 -0.733,-0.078c-0.104,-0.011 -0.207,-0.024 -0.31,-0.036c-0.687,-0.088 -1.323,-0.19 -1.902,-0.304c-0.011,-0.002 -0.023,-0.005 -0.034,-0.007c-0.862,-0.171 -1.597,-0.369 -2.217,-0.576c0.508,-0.456 1.647,-0.891 3.176,-0.891c2.124,0 3.48,0.825 3.48,1.392c0,0.18 -0.146,0.388 -0.406,0.586Zm-8.642,2.198c0.384,0 0.696,0.312 0.696,0.696c0,0.384 -0.312,0.696 -0.696,0.696l0,-1.392Zm-11.136,-15.312l3.348,0c0.248,0 0.478,-0.132 0.602,-0.347c0.621,-1.074 1.775,-1.741 3.01,-1.741c1.236,0 2.39,0.667 3.01,1.741c0.125,0.215 0.355,0.347 0.602,0.347l3.348,0l0,2.784l-3.348,0c-0.247,0 -0.478,0.132 -0.602,0.347c-0.62,1.074 -1.774,1.741 -3.01,1.741c-1.235,0 -2.389,-0.667 -3.01,-1.741c-0.125,-0.215 -0.354,-0.347 -0.602,-0.347l-3.348,0l0,-2.784Zm2.784,-15.312c0,-0.384 0.312,-0.696 0.696,-0.696l6.96,0c0.384,0 0.696,0.312 0.696,0.696l0,2.784c0,0.249 -0.138,0.457 -0.335,0.58c-0.09,0.06 -0.206,0.116 -0.361,0.116l-6.96,0c-0.155,0 -0.271,-0.056 -0.361,-0.116c-0.196,-0.123 -0.335,-0.331 -0.335,-0.58l0,-2.784Zm0.164,4.802c0.013,0.003 0.027,0.002 0.04,0.005c0.159,0.039 0.322,0.065 0.492,0.065l6.96,0c0.17,0 0.334,-0.026 0.492,-0.065c0.013,-0.003 0.027,-0.002 0.04,-0.005l2.948,6.485l0,2.633l-2.966,0c-0.906,-1.297 -2.401,-2.088 -3.994,-2.088c-1.593,0 -3.088,0.791 -3.994,2.088l-2.966,0l0,-2.633l2.948,-6.485Zm-2.948,28.606l0,-13.92l2.966,0c0.907,1.297 2.401,2.088 3.994,2.088c1.593,0 3.088,-0.791 3.994,-2.088l2.966,0l0,3.086c-2.217,0.606 -3.779,1.498 -4.106,2.702c-0.046,0.154 -0.07,0.313 -0.07,0.476l0,9.744c0,0.147 0.025,0.29 0.063,0.431c0.021,0.088 0.055,0.172 0.089,0.257c0.009,0.021 0.018,0.041 0.028,0.062c0.101,0.225 0.238,0.441 0.425,0.642l-6.869,0c-1.919,0 -3.48,-1.561 -3.48,-3.48Zm12.688,3.356c-0.064,-0.076 -0.139,-0.143 -0.232,-0.186c-0.832,-0.385 -1.202,-0.742 -1.294,-0.973c-0.01,-0.037 -0.026,-0.074 -0.026,-0.109l0,-2.088c1.151,0 2.088,-0.937 2.088,-2.088c0,-1.151 -0.937,-2.088 -2.088,-2.088l0,-1.439c0.082,0.052 0.175,0.101 0.263,0.152c0.045,0.025 0.087,0.052 0.132,0.077c0.197,0.106 0.408,0.208 0.632,0.305c0.044,0.019 0.09,0.036 0.134,0.054c0.191,0.08 0.39,0.156 0.597,0.229c0.069,0.024 0.137,0.048 0.208,0.071c0.232,0.078 0.473,0.152 0.723,0.222c0.028,0.008 0.053,0.016 0.08,0.024c0.281,0.077 0.574,0.148 0.875,0.217c0.073,0.016 0.149,0.032 0.225,0.048c0.242,0.053 0.489,0.102 0.742,0.148c0.077,0.014 0.154,0.029 0.233,0.042c0.321,0.057 0.649,0.109 0.984,0.156c0.037,0.005 0.074,0.009 0.109,0.014c0.277,0.038 0.558,0.073 0.843,0.105c0.047,0.006 0.093,0.011 0.14,0.016c0.075,0.009 0.151,0.016 0.225,0.023c0.176,0.018 0.351,0.036 0.529,0.052c0.071,0.006 0.139,0.014 0.21,0.021l0.177,0.013c0.006,0.001 0.012,0.001 0.018,0.001c0.047,0.004 0.093,0.008 0.139,0.011c0.355,0.028 0.715,0.05 1.077,0.069c0.087,0.005 0.174,0.008 0.261,0.012c0.286,0.013 0.573,0.024 0.862,0.032c0.103,0.003 0.206,0.006 0.31,0.008c0.368,0.007 0.736,0.013 1.104,0.013c0.368,0 0.736,-0.006 1.103,-0.014c0.104,-0.002 0.206,-0.005 0.31,-0.008c0.288,-0.009 0.576,-0.019 0.862,-0.032c0.087,-0.004 0.174,-0.007 0.261,-0.012c0.362,-0.019 0.721,-0.042 1.078,-0.069c0.067,-0.005 0.133,-0.012 0.2,-0.017c0.294,-0.023 0.585,-0.051 0.873,-0.08c0.097,-0.01 0.193,-0.021 0.29,-0.031c0.31,-0.034 0.617,-0.072 0.918,-0.114c0.036,-0.004 0.073,-0.009 0.109,-0.013c0.335,-0.048 0.663,-0.101 0.985,-0.156c0.078,-0.014 0.154,-0.029 0.232,-0.043c0.253,-0.046 0.501,-0.096 0.743,-0.147c0.075,-0.016 0.151,-0.032 0.225,-0.049c0.3,-0.068 0.593,-0.139 0.874,-0.217c0.028,-0.007 0.053,-0.016 0.08,-0.023c0.25,-0.07 0.491,-0.144 0.724,-0.222c0.071,-0.023 0.139,-0.047 0.208,-0.071c0.207,-0.073 0.406,-0.148 0.597,-0.228c0.044,-0.018 0.09,-0.035 0.134,-0.054c0.224,-0.098 0.434,-0.199 0.632,-0.306c0.045,-0.025 0.087,-0.05 0.132,-0.076c0.088,-0.05 0.181,-0.1 0.263,-0.153l0,2.135c-1.919,0 -3.48,1.561 -3.48,3.48c0,1.468 0.916,2.719 2.204,3.23c-1.739,0.833 -5.255,1.642 -10.557,1.642c-5.035,0 -8.458,-0.729 -10.28,-1.516Zm24.936,-7.532l-1.432,0l0,-3.48c0,-2.885 -6.642,-4.176 -13.224,-4.176c-0.827,0 -1.654,0.02 -2.47,0.062l-0.825,-13.147c2.289,0.894 6.664,1.249 9.513,1.252l0.093,0c2.892,-0.003 7.276,-0.364 9.556,-1.27l-1.211,20.759Z" style="fill:#303441;fill-rule:nonzero;"/><path d="M31.935,17.063c-0.95,-1.715 -2.777,-2.879 -4.872,-2.879l-0.696,0c-0.385,0 -0.696,0.311 -0.696,0.696l0,0.696c0,3.07 2.498,5.568 5.568,5.568l0,2.088l1.392,0l0,-2.088c3.07,0 5.568,-2.498 5.568,-5.568l0,-0.696c0,-0.385 -0.311,-0.696 -0.696,-0.696l-0.696,0c-2.095,0 -3.922,1.164 -4.872,2.879Zm-4.872,-1.487c2.303,0 4.176,1.873 4.176,4.176c-2.303,0 -4.176,-1.873 -4.176,-4.176Zm9.744,0c0,2.303 -1.873,4.176 -4.176,4.176c0,-2.303 1.873,-4.176 4.176,-4.176Z" style="fill:#303441;fill-rule:nonzero;"/></g></svg>