<?xml version="1.0" encoding="UTF-8" standalone="no"?><!DOCTYPE svg PUBLIC "-//W3C//DTD SVG 1.1//EN" "http://www.w3.org/Graphics/SVG/1.1/DTD/svg11.dtd"><svg width="100%" height="100%" viewBox="0 0 43 42" version="1.1" xmlns="http://www.w3.org/2000/svg" xmlns:xlink="http://www.w3.org/1999/xlink" xml:space="preserve" xmlns:serif="http://www.serif.com/" style="fill-rule:evenodd;clip-rule:evenodd;stroke-linejoin:round;stroke-miterlimit:1.41421;"><g><path d="M2.649,33.408c0.323,1.586 1.729,2.784 3.41,2.784l32.016,0c1.68,0 3.086,-1.198 3.41,-2.784l-38.836,0Zm35.426,4.176l-32.016,0c-2.686,0 -4.872,-2.185 -4.872,-4.872c0,-0.384 0.311,-0.696 0.696,-0.696l40.368,0c0.384,0 0.696,0.312 0.696,0.696c0,2.687 -2.186,4.872 -4.872,4.872Z" style="fill:#cff0e7;"/><path d="M11.669,16.008l2.701,0c-0.181,-1.479 -0.917,-2.284 -1.348,-2.637c-0.435,0.359 -1.17,1.169 -1.353,2.637m3.438,1.392l-4.176,0c-0.384,0 -0.696,-0.312 -0.696,-0.696c0,-3.471 2.361,-4.741 2.462,-4.793c0.2,-0.105 0.438,-0.105 0.639,-0.003c0.1,0.051 2.467,1.3 2.467,4.796c0,0.384 -0.312,0.696 -0.696,0.696" style="fill:#cff0e7;"/><path d="M20.717,16.008l2.701,0c-0.181,-1.479 -0.917,-2.284 -1.348,-2.637c-0.435,0.359 -1.17,1.169 -1.353,2.637m3.438,1.392l-4.176,0c-0.384,0 -0.696,-0.312 -0.696,-0.696c0,-3.471 2.361,-4.741 2.462,-4.793c0.2,-0.105 0.438,-0.105 0.639,-0.003c0.1,0.051 2.467,1.3 2.467,4.796c0,0.384 -0.312,0.696 -0.696,0.696" style="fill:#cff0e7;"/><path d="M29.765,16.008l2.701,0c-0.181,-1.479 -0.917,-2.284 -1.348,-2.637c-0.435,0.359 -1.17,1.169 -1.353,2.637m3.438,1.392l-4.176,0c-0.384,0 -0.696,-0.312 -0.696,-0.696c0,-3.471 2.361,-4.741 2.462,-4.793c0.2,-0.105 0.438,-0.105 0.639,-0.003c0.1,0.051 2.467,1.3 2.467,4.796c0,0.384 -0.312,0.696 -0.696,0.696" style="fill:#cff0e7;"/><path d="M5.363,32.016l33.408,0l0,-15.723c0,-6.298 -5.123,-11.421 -11.421,-11.421c-1.381,0 -2.606,-0.829 -3.119,-2.112l-0.053,-0.132c-0.3,-0.751 -1.017,-1.236 -1.826,-1.236l-0.57,0c-0.809,0 -1.526,0.485 -1.826,1.237l-0.053,0.131c-0.513,1.283 -1.737,2.112 -3.119,2.112c-6.298,0 -11.421,5.123 -11.421,11.421l0,15.723Zm34.104,1.392l-34.8,0c-0.384,0 -0.696,-0.312 -0.696,-0.696l0,-16.419c0,-7.065 5.747,-12.813 12.813,-12.813c0.809,0 1.526,-0.485 1.826,-1.237l0.053,-0.131c0.513,-1.283 1.738,-2.112 3.119,-2.112l0.57,0c1.382,0 2.606,0.829 3.119,2.112l0.053,0.132c0.3,0.751 1.017,1.236 1.826,1.236c7.065,0 12.813,5.748 12.813,12.813l0,16.419c0,0.384 -0.312,0.696 -0.696,0.696Z" style="fill:#cff0e7;"/><path d="M26.243,1.392l-8.352,0c-0.384,0 -0.696,-0.312 -0.696,-0.696c0,-0.384 0.312,-0.696 0.696,-0.696l8.352,0c0.384,0 0.696,0.312 0.696,0.696c0,0.384 -0.312,0.696 -0.696,0.696" style="fill:#cff0e7;"/><path d="M12.323,40.368l19.488,0l0,-0.696l-3.48,0c-1.295,0 -2.386,-0.889 -2.696,-2.088l-7.136,0c-0.31,1.199 -1.402,2.088 -2.696,2.088l-3.48,0l0,0.696Zm20.184,1.392l-20.88,0c-0.384,0 -0.696,-0.312 -0.696,-0.696l0,-2.088c0,-0.384 0.312,-0.696 0.696,-0.696l4.176,0c0.768,0 1.392,-0.624 1.392,-1.392c0,-0.384 0.312,-0.696 0.696,-0.696l8.352,0c0.384,0 0.696,0.312 0.696,0.696c0,0.768 0.624,1.392 1.392,1.392l4.176,0c0.384,0 0.696,0.312 0.696,0.696l0,2.088c0,0.384 -0.312,0.696 -0.696,0.696Z" style="fill:#cff0e7;"/><path d="M11.627,41.76l-2.088,0c-0.384,0 -0.696,-0.312 -0.696,-0.696c0,-0.384 0.312,-0.696 0.696,-0.696l2.088,0c0.384,0 0.696,0.312 0.696,0.696c0,0.384 -0.312,0.696 -0.696,0.696" style="fill:#cff0e7;"/><path d="M34.595,41.76l-2.088,0c-0.384,0 -0.696,-0.312 -0.696,-0.696c0,-0.384 0.312,-0.696 0.696,-0.696l2.088,0c0.384,0 0.696,0.312 0.696,0.696c0,0.384 -0.312,0.696 -0.696,0.696" style="fill:#cff0e7;"/><path d="M8.843,32.016l26.448,0l0,-3.48l-26.448,0l0,3.48Zm27.144,1.392l-27.84,0c-0.384,0 -0.696,-0.312 -0.696,-0.696l0,-4.872c0,-0.384 0.312,-0.696 0.696,-0.696l27.84,0c0.384,0 0.696,0.312 0.696,0.696l0,4.872c0,0.384 -0.312,0.696 -0.696,0.696Z" style="fill:#cff0e7;"/><path d="M7.451,19.488l4.504,0c1.388,0 1.76,2.778 1.76,3.151l0,1.025c0,0.768 0.624,1.392 1.392,1.392c0.768,0 1.392,-0.624 1.392,-1.392c0,-0.768 0.624,-1.392 1.392,-1.392l2.784,0c0,-0.028 0.126,-2.784 1.392,-2.784l9.527,0c1.271,0 2.305,1.034 2.305,2.304l0,1.058c0,0.793 0.59,1.47 1.316,1.508c0.391,0.023 0.754,-0.114 1.034,-0.38c0.279,-0.265 0.434,-0.624 0.434,-1.01l0,-4.479c0,-0.6 -0.489,-1.089 -1.089,-1.089l-27.054,0c-0.601,0 -1.089,0.489 -1.089,1.089l0,0.999Zm7.656,6.96c-1.536,0 -2.784,-1.249 -2.784,-2.784l0,-1.025c0,-0.416 -0.295,-1.443 -0.523,-1.759l-5.045,0c-0.384,0 -0.696,-0.312 -0.696,-0.696l0,-1.695c0,-1.368 1.113,-2.481 2.481,-2.481l27.054,0c1.368,0 2.481,1.113 2.481,2.481l0,4.479c0,0.76 -0.317,1.496 -0.868,2.02c-0.56,0.53 -1.295,0.799 -2.064,0.76c-1.479,-0.077 -2.636,-1.35 -2.636,-2.898l0,-1.058c0,-0.503 -0.409,-0.912 -0.913,-0.912l-9.228,0c-0.146,0.374 -0.299,1.16 -0.299,1.392c0,0.768 -0.624,1.392 -1.392,1.392l-2.784,0c0,1.535 -1.249,2.784 -2.784,2.784Z" style="fill:#cff0e7;"/><path d="M8.147,23.664c-0.384,0 -0.696,-0.312 -0.696,-0.696l0,-2.784c0,-0.384 0.312,-0.696 0.696,-0.696c0.384,0 0.696,0.312 0.696,0.696l0,2.784c0,0.384 -0.312,0.696 -0.696,0.696" style="fill:#cff0e7;"/><path d="M35.987,28.536l-27.84,0c-0.384,0 -0.696,-0.312 -0.696,-0.696l0,-4.872c0,-0.384 0.312,-0.696 0.696,-0.696l4.872,0c0.384,0 0.696,0.312 0.696,0.696c0,0.384 -0.312,0.696 -0.696,0.696l-4.176,0l0,3.48l26.448,0l0,-2.211c0,-0.384 0.312,-0.696 0.696,-0.696c0.384,0 0.696,0.312 0.696,0.696l0,2.907c0,0.384 -0.312,0.696 -0.696,0.696" style="fill:#cff0e7;"/><path d="M33.214,23.664l-15.323,0c-0.384,0 -0.696,-0.311 -0.696,-0.696c0,-0.385 0.312,-0.696 0.696,-0.696l15.323,0l0,1.392Z" style="fill:#cff0e7;"/></g><g><path d="M1.462,33.408c0.323,1.586 1.73,2.784 3.41,2.784l32.016,0c1.681,0 3.087,-1.198 3.41,-2.784l-38.836,0Zm35.426,4.176l-32.016,0c-2.686,0 -4.872,-2.185 -4.872,-4.872c0,-0.384 0.312,-0.696 0.696,-0.696l40.368,0c0.385,0 0.696,0.312 0.696,0.696c0,2.687 -2.185,4.872 -4.872,4.872Z" style="fill:#303441;"/><path d="M10.482,16.008l2.701,0c-0.181,-1.479 -0.916,-2.284 -1.347,-2.637c-0.435,0.359 -1.171,1.169 -1.354,2.637m3.438,1.392l-4.176,0c-0.384,0 -0.696,-0.312 -0.696,-0.696c0,-3.471 2.362,-4.741 2.463,-4.793c0.2,-0.105 0.438,-0.105 0.638,-0.003c0.101,0.051 2.467,1.3 2.467,4.796c0,0.384 -0.311,0.696 -0.696,0.696" style="fill:#303441;"/><path d="M19.53,16.008l2.701,0c-0.181,-1.479 -0.916,-2.284 -1.347,-2.637c-0.435,0.359 -1.171,1.169 -1.354,2.637m3.438,1.392l-4.176,0c-0.384,0 -0.696,-0.312 -0.696,-0.696c0,-3.471 2.362,-4.741 2.463,-4.793c0.2,-0.105 0.438,-0.105 0.638,-0.003c0.101,0.051 2.467,1.3 2.467,4.796c0,0.384 -0.311,0.696 -0.696,0.696" style="fill:#303441;"/><path d="M28.578,16.008l2.701,0c-0.181,-1.479 -0.916,-2.284 -1.347,-2.637c-0.435,0.359 -1.171,1.169 -1.354,2.637m3.438,1.392l-4.176,0c-0.384,0 -0.696,-0.312 -0.696,-0.696c0,-3.471 2.362,-4.741 2.463,-4.793c0.2,-0.105 0.438,-0.105 0.638,-0.003c0.101,0.051 2.467,1.3 2.467,4.796c0,0.384 -0.311,0.696 -0.696,0.696" style="fill:#303441;"/><path d="M4.176,32.016l33.408,0l0,-15.723c0,-6.298 -5.123,-11.421 -11.42,-11.421c-1.382,0 -2.606,-0.829 -3.12,-2.112l-0.052,-0.132c-0.301,-0.751 -1.018,-1.236 -1.826,-1.236l-0.57,0c-0.81,0 -1.527,0.485 -1.827,1.237l-0.053,0.131c-0.513,1.283 -1.737,2.112 -3.118,2.112c-6.298,0 -11.422,5.123 -11.422,11.421l0,15.723Zm34.104,1.392l-34.8,0c-0.384,0 -0.696,-0.312 -0.696,-0.696l0,-16.419c0,-7.065 5.748,-12.813 12.814,-12.813c0.808,0 1.525,-0.485 1.826,-1.237l0.052,-0.131c0.514,-1.283 1.738,-2.112 3.12,-2.112l0.57,0c1.381,0 2.605,0.829 3.118,2.112l0.053,0.132c0.3,0.751 1.017,1.236 1.827,1.236c7.065,0 12.812,5.748 12.812,12.813l0,16.419c0,0.384 -0.312,0.696 -0.696,0.696Z" style="fill:#303441;"/><path d="M25.056,1.392l-8.352,0c-0.384,0 -0.696,-0.312 -0.696,-0.696c0,-0.384 0.312,-0.696 0.696,-0.696l8.352,0c0.384,0 0.696,0.312 0.696,0.696c0,0.384 -0.312,0.696 -0.696,0.696" style="fill:#303441;"/><path d="M11.136,40.368l19.488,0l0,-0.696l-3.48,0c-1.294,0 -2.386,-0.889 -2.696,-2.088l-7.135,0c-0.311,1.199 -1.402,2.088 -2.697,2.088l-3.48,0l0,0.696Zm20.184,1.392l-20.88,0c-0.384,0 -0.696,-0.312 -0.696,-0.696l0,-2.088c0,-0.384 0.312,-0.696 0.696,-0.696l4.176,0c0.768,0 1.392,-0.624 1.392,-1.392c0,-0.384 0.312,-0.696 0.696,-0.696l8.352,0c0.384,0 0.696,0.312 0.696,0.696c0,0.768 0.625,1.392 1.392,1.392l4.176,0c0.384,0 0.696,0.312 0.696,0.696l0,2.088c0,0.384 -0.312,0.696 -0.696,0.696Z" style="fill:#303441;"/><path d="M10.44,41.76l-2.088,0c-0.384,0 -0.696,-0.312 -0.696,-0.696c0,-0.384 0.312,-0.696 0.696,-0.696l2.088,0c0.384,0 0.696,0.312 0.696,0.696c0,0.384 -0.312,0.696 -0.696,0.696" style="fill:#303441;"/><path d="M33.408,41.76l-2.088,0c-0.384,0 -0.696,-0.312 -0.696,-0.696c0,-0.384 0.312,-0.696 0.696,-0.696l2.088,0c0.384,0 0.696,0.312 0.696,0.696c0,0.384 -0.312,0.696 -0.696,0.696" style="fill:#303441;"/><path d="M7.656,32.016l26.448,0l0,-3.48l-26.448,0l0,3.48Zm27.144,1.392l-27.84,0c-0.384,0 -0.696,-0.312 -0.696,-0.696l0,-4.872c0,-0.384 0.312,-0.696 0.696,-0.696l27.84,0c0.385,0 0.696,0.312 0.696,0.696l0,4.872c0,0.384 -0.311,0.696 -0.696,0.696Z" style="fill:#303441;"/><path d="M6.264,19.488l4.505,0c1.388,0 1.759,2.778 1.759,3.151l0,1.025c0,0.768 0.625,1.392 1.392,1.392c0.768,0 1.392,-0.624 1.392,-1.392c0,-0.768 0.625,-1.392 1.392,-1.392l2.784,0c0,-0.028 0.126,-2.784 1.392,-2.784l9.528,0c1.271,0 2.304,1.034 2.304,2.304l0,1.058c0,0.793 0.59,1.47 1.316,1.508c0.392,0.023 0.755,-0.114 1.034,-0.38c0.28,-0.265 0.434,-0.624 0.434,-1.01l0,-4.479c0,-0.6 -0.488,-1.089 -1.089,-1.089l-27.053,0c-0.601,0 -1.09,0.489 -1.09,1.089l0,0.999Zm7.656,6.96c-1.535,0 -2.784,-1.249 -2.784,-2.784l0,-1.025c0,-0.416 -0.294,-1.443 -0.522,-1.759l-5.046,0c-0.384,0 -0.696,-0.312 -0.696,-0.696l0,-1.695c0,-1.368 1.113,-2.481 2.482,-2.481l27.053,0c1.368,0 2.481,1.113 2.481,2.481l0,4.479c0,0.76 -0.316,1.496 -0.868,2.02c-0.559,0.53 -1.294,0.799 -2.064,0.76c-1.478,-0.077 -2.636,-1.35 -2.636,-2.898l0,-1.058c0,-0.503 -0.409,-0.912 -0.912,-0.912l-9.228,0c-0.147,0.374 -0.3,1.16 -0.3,1.392c0,0.768 -0.624,1.392 -1.392,1.392l-2.784,0c0,1.535 -1.248,2.784 -2.784,2.784Z" style="fill:#303441;"/><path d="M6.961,23.664c-0.385,0 -0.696,-0.312 -0.696,-0.696l0,-2.784c0,-0.384 0.311,-0.696 0.696,-0.696c0.384,0 0.696,0.312 0.696,0.696l0,2.784c0,0.384 -0.312,0.696 -0.696,0.696" style="fill:#303441;"/><path d="M34.801,28.536l-27.84,0c-0.385,0 -0.696,-0.312 -0.696,-0.696l0,-4.872c0,-0.384 0.311,-0.696 0.696,-0.696l4.872,0c0.384,0 0.696,0.312 0.696,0.696c0,0.384 -0.312,0.696 -0.696,0.696l-4.176,0l0,3.48l26.448,0l0,-2.211c0,-0.384 0.311,-0.696 0.696,-0.696c0.384,0 0.696,0.312 0.696,0.696l0,2.907c0,0.384 -0.312,0.696 -0.696,0.696" style="fill:#303441;"/><path d="M32.027,23.664l-15.323,0c-0.384,0 -0.696,-0.311 -0.696,-0.696c0,-0.385 0.312,-0.696 0.696,-0.696l15.323,0l0,1.392Z" style="fill:#303441;"/></g></svg>