<?xml version="1.0" encoding="UTF-8" standalone="no"?><!DOCTYPE svg PUBLIC "-//W3C//DTD SVG 1.1//EN" "http://www.w3.org/Graphics/SVG/1.1/DTD/svg11.dtd"><svg width="100%" height="100%" viewBox="0 0 43 42" version="1.1" xmlns="http://www.w3.org/2000/svg" xmlns:xlink="http://www.w3.org/1999/xlink" xml:space="preserve" xmlns:serif="http://www.serif.com/" style="fill-rule:evenodd;clip-rule:evenodd;stroke-linejoin:round;stroke-miterlimit:1.41421;"><g><path d="M14.518,13.379c-1.219,0 -2.313,-0.648 -2.601,-1.543l-1.273,0.41c0.468,1.455 2.061,2.47 3.874,2.47c1.813,0 3.407,-1.016 3.875,-2.47l-1.273,-0.41c-0.288,0.895 -1.382,1.543 -2.602,1.543Z" style="fill:#c7efcf;fill-rule:nonzero;"/><path d="M5.156,18.729l-1.337,0c0,5.899 4.8,10.7 10.699,10.7l0,-1.338c-5.162,0 -9.362,-4.199 -9.362,-9.362Z" style="fill:#c7efcf;fill-rule:nonzero;"/><rect x="3.819" y="16.054" width="1.337" height="1.337" style="fill:#c7efcf;"/><path d="M37.414,18.534c5.52,-2.802 5.187,-8.49 5.183,-8.551l-0.044,-0.621l-0.623,0c-4.86,0 -8.318,1.292 -10.343,3.837l0.312,-3.163l0,-2.68l-4.012,0l0,2.68l0.612,6.098c-0.283,0.032 -0.566,0.075 -0.851,0.127c-0.35,-1.867 -1.082,-3.649 -2.189,-5.218l0,0c-2.077,-2.941 -5.987,-3.81 -9.449,-2.164l0.514,-6.199l0,-2.68l-4.012,0l0.002,2.735l0.098,1.174c-1.667,-2.027 -4.824,-3.904 -10.799,-3.904l-0.623,0l-0.045,0.621c-0.004,0.065 -0.107,1.639 0.601,3.53c0.557,1.488 1.73,3.423 4.17,4.798c-0.904,0.5 -1.707,1.196 -2.337,2.089c-1.902,2.695 -2.732,6.007 -2.337,9.325c0.724,6.069 5.658,10.968 11.735,11.649c0.495,0.055 0.999,0.082 1.541,0.082c0.543,0 1.047,-0.027 1.542,-0.082c0.513,-0.058 1.014,-0.156 1.51,-0.272c1.367,5.668 6.436,9.716 12.329,9.716c7.006,0 12.706,-5.7 12.706,-12.706c0,-4.192 -2.051,-7.906 -5.191,-10.221Zm-1.325,-0.865c-0.575,-0.322 -1.18,-0.592 -1.805,-0.824c1.623,-1.925 3.509,-3.815 6.919,-5.677c-0.216,1.676 -1.161,4.866 -5.114,6.501Zm2.935,-6.775c-2.89,1.816 -4.585,3.656 -6.128,5.528c-0.473,-0.115 -0.953,-0.207 -1.444,-0.268c1.095,-2.948 3.637,-4.707 7.572,-5.26Zm-9.8,-0.893l0,-1.308l1.338,0l0.002,1.276l-0.603,6.084c-0.021,0 -0.041,-0.004 -0.062,-0.004c-0.021,0 -0.043,0.002 -0.064,0.002l-0.611,-6.05Zm-15.374,-8.664l1.338,0l0.001,1.287l-0.56,6.728c-0.075,0.004 -0.147,0.004 -0.222,0l-0.557,-6.672l0,-1.343Zm-0.957,5.943l0.133,1.599c-0.348,-0.166 -0.699,-0.309 -1.054,-0.424c-2.018,-2.527 -3.843,-4.778 -7.284,-6.938c5.54,0.696 7.543,3.411 8.205,5.763Zm-10.364,-5.476c3.605,1.962 5.506,3.942 7.41,6.263c-0.8,-0.048 -1.586,0.03 -2.337,0.221c-3.951,-1.657 -4.871,-4.819 -5.073,-6.484Zm13.382,28.883c-0.89,0.1 -1.895,0.1 -2.785,0c-5.466,-0.611 -9.905,-5.018 -10.556,-10.477c-0.356,-2.989 0.39,-5.971 2.101,-8.396c1.116,-1.582 2.897,-2.424 4.802,-2.424c1.109,0 2.261,0.286 3.348,0.877c1.066,0.581 2.329,0.58 3.393,0.001c2.956,-1.608 6.384,-0.957 8.151,1.546l0,0c1.712,2.425 2.457,5.407 2.101,8.396c-0.65,5.459 -5.089,9.866 -10.555,10.477Zm13.988,9.437c-5.293,0 -9.842,-3.65 -11.044,-8.751c4.392,-1.515 7.797,-5.287 8.758,-9.894c0.661,0.381 1.449,0.594 2.279,0.594c1.814,0 3.407,-1.016 3.875,-2.47l-1.272,-0.411c-0.288,0.894 -1.382,1.543 -2.602,1.543c-0.805,0 -1.56,-0.287 -2.069,-0.76c0.072,-0.801 0.075,-1.598 0.007,-2.387c0.7,-0.132 1.394,-0.201 2.068,-0.201c6.269,0 11.368,5.1 11.368,11.368c0,6.269 -5.099,11.369 -11.368,11.369Z" style="fill:#c7efcf;fill-rule:nonzero;"/><rect x="31.236" y="36.78" width="1.337" height="1.337" style="fill:#c7efcf;"/><rect x="33.911" y="32.768" width="1.337" height="1.337" style="fill:#c7efcf;"/><rect x="37.924" y="30.093" width="1.337" height="1.337" style="fill:#c7efcf;"/><rect x="36.586" y="32.768" width="1.337" height="1.337" style="fill:#c7efcf;"/><rect x="33.911" y="35.442" width="1.337" height="1.337" style="fill:#c7efcf;"/></g><g><path d="M13.381,13.379c-1.22,0 -2.314,-0.648 -2.602,-1.543l-1.273,0.41c0.468,1.455 2.062,2.47 3.875,2.47c1.812,0 3.407,-1.016 3.874,-2.47l-1.273,-0.41c-0.288,0.895 -1.382,1.543 -2.601,1.543Z" style="fill:#303441;fill-rule:nonzero;"/><path d="M4.018,18.729l-1.337,0c0,5.899 4.8,10.7 10.7,10.7l0,-1.338c-5.163,0 -9.363,-4.199 -9.363,-9.362Z" style="fill:#303441;fill-rule:nonzero;"/><rect x="2.681" y="16.054" width="1.337" height="1.337" style="fill:#303441;"/><path d="M36.276,18.534c5.52,-2.802 5.188,-8.49 5.184,-8.551l-0.045,-0.621l-0.623,0c-4.859,0 -8.317,1.292 -10.343,3.837l0.312,-3.163l0,-2.68l-4.012,0l0,2.68l0.613,6.098c-0.283,0.032 -0.567,0.075 -0.852,0.127c-0.35,-1.867 -1.082,-3.649 -2.189,-5.218l0,0c-2.077,-2.941 -5.987,-3.81 -9.448,-2.164l0.514,-6.199l0,-2.68l-4.013,0l0.002,2.735l0.098,1.174c-1.667,-2.027 -4.824,-3.904 -10.799,-3.904l-0.623,0l-0.045,0.621c-0.004,0.065 -0.107,1.639 0.602,3.53c0.557,1.488 1.729,3.423 4.17,4.798c-0.905,0.5 -1.707,1.196 -2.338,2.089c-1.902,2.695 -2.732,6.007 -2.337,9.325c0.724,6.069 5.658,10.968 11.735,11.649c0.495,0.055 0.999,0.082 1.542,0.082c0.542,0 1.046,-0.027 1.541,-0.082c0.514,-0.058 1.014,-0.156 1.51,-0.272c1.367,5.668 6.436,9.716 12.329,9.716c7.006,0 12.706,-5.7 12.706,-12.706c0,-4.192 -2.05,-7.906 -5.191,-10.221Zm-1.325,-0.865c-0.574,-0.322 -1.18,-0.592 -1.805,-0.824c1.623,-1.925 3.51,-3.815 6.919,-5.677c-0.216,1.676 -1.161,4.866 -5.114,6.501Zm2.936,-6.775c-2.891,1.816 -4.586,3.656 -6.129,5.528c-0.472,-0.115 -0.952,-0.207 -1.444,-0.268c1.095,-2.948 3.637,-4.707 7.573,-5.26Zm-9.8,-0.893l0,-1.308l1.338,0l0.002,1.276l-0.604,6.084c-0.02,0 -0.04,-0.004 -0.062,-0.004c-0.021,0 -0.043,0.002 -0.063,0.002l-0.611,-6.05Zm-15.375,-8.664l1.338,0l0.001,1.287l-0.56,6.728c-0.074,0.004 -0.147,0.004 -0.221,0l-0.558,-6.672l0,-1.343Zm-0.956,5.943l0.133,1.599c-0.349,-0.166 -0.7,-0.309 -1.055,-0.424c-2.018,-2.527 -3.842,-4.778 -7.284,-6.938c5.541,0.696 7.543,3.411 8.206,5.763Zm-10.364,-5.476c3.604,1.962 5.505,3.942 7.409,6.263c-0.8,-0.048 -1.586,0.03 -2.337,0.221c-3.951,-1.657 -4.871,-4.819 -5.072,-6.484Zm13.382,28.883c-0.891,0.1 -1.896,0.1 -2.786,0c-5.466,-0.611 -9.905,-5.018 -10.556,-10.477c-0.356,-2.989 0.39,-5.971 2.101,-8.396c1.117,-1.582 2.897,-2.424 4.802,-2.424c1.109,0 2.261,0.286 3.348,0.877c1.066,0.581 2.329,0.58 3.393,0.001c2.956,-1.608 6.384,-0.957 8.152,1.546l0,0c1.711,2.425 2.456,5.407 2.1,8.396c-0.649,5.459 -5.089,9.866 -10.554,10.477Zm13.987,9.437c-5.293,0 -9.842,-3.65 -11.044,-8.751c4.392,-1.515 7.798,-5.287 8.758,-9.894c0.661,0.381 1.449,0.594 2.28,0.594c1.813,0 3.407,-1.016 3.874,-2.47l-1.272,-0.411c-0.288,0.894 -1.382,1.543 -2.602,1.543c-0.804,0 -1.56,-0.287 -2.069,-0.76c0.072,-0.801 0.076,-1.598 0.008,-2.387c0.7,-0.132 1.393,-0.201 2.067,-0.201c6.269,0 11.369,5.1 11.369,11.368c0,6.269 -5.1,11.369 -11.369,11.369Z" style="fill:#303441;fill-rule:nonzero;"/><rect x="30.099" y="36.78" width="1.337" height="1.337" style="fill:#303441;"/><rect x="32.774" y="32.768" width="1.337" height="1.337" style="fill:#303441;"/><rect x="36.786" y="30.093" width="1.337" height="1.337" style="fill:#303441;"/><rect x="35.449" y="32.768" width="1.337" height="1.337" style="fill:#303441;"/><rect x="32.774" y="35.442" width="1.337" height="1.337" style="fill:#303441;"/></g></svg>