<?xml version="1.0" encoding="UTF-8" standalone="no"?><!DOCTYPE svg PUBLIC "-//W3C//DTD SVG 1.1//EN" "http://www.w3.org/Graphics/SVG/1.1/DTD/svg11.dtd"><svg width="100%" height="100%" viewBox="0 0 43 43" version="1.1" xmlns="http://www.w3.org/2000/svg" xmlns:xlink="http://www.w3.org/1999/xlink" xml:space="preserve" xmlns:serif="http://www.serif.com/" style="fill-rule:evenodd;clip-rule:evenodd;stroke-linejoin:round;stroke-miterlimit:1.41421;"><g><path d="M42.296,36.203c-0.378,0 -0.802,-0.047 -1.18,-0.047c-0.141,-3.585 -1.274,-6.887 -3.444,-9.765c-1.085,-1.368 -2.311,-2.547 -3.726,-3.585c-0.85,-0.613 -1.935,-1.321 -3.02,-1.651c-0.566,-1.746 -3.396,-2.784 -4.906,-2.972c-1.934,-0.283 -3.774,0.377 -5.142,1.604c-1.085,-0.331 -2.453,0.235 -3.349,0.802c-0.283,0.188 -0.519,0.377 -0.755,0.566c0.189,-3.255 4.387,-6.227 2.783,-9.435c0.661,-0.048 1.274,-0.142 1.887,-0.331c2.123,-0.66 2.548,-2.264 2.595,-4.057c0.283,0 7.972,-0.047 11.511,0.283c1.603,0.142 1.603,-2.641 0,-2.5c-3.539,0.283 -11.275,0.236 -11.558,0.236c-0.095,-2.123 -0.566,-3.915 -3.067,-4.151c-1.557,-0.142 -3.113,-0.236 -4.67,-0.189c-0.755,0 -1.934,-0.142 -2.831,0.047c-1.556,0 -3.396,1.604 -4.009,2.736c-1.227,2.076 -0.802,4.906 0.613,6.841c0.707,0.943 1.887,1.556 2.5,2.547c0.849,1.368 -0.566,2.878 -1.321,3.963c-1.509,2.264 -2.123,4.576 -0.472,6.935c0.189,0.235 0.425,0.377 0.661,0.424c-1.793,1.179 -3.397,2.595 -4.67,4.151c-1.038,1.274 -1.887,2.689 -2.548,4.199c-0.33,0.802 -0.896,1.981 -0.943,3.019c-0.566,0.095 -1.133,0.189 -1.699,0.33c-0.424,0.142 -0.471,0.85 0,0.944c0.566,0.094 1.085,0.142 1.651,0.236c0,0.094 0.048,0.189 0.048,0.236c0.424,0.896 0.896,1.745 1.415,2.594c0.424,0.755 0.708,1.84 1.604,2.17c0.755,0.283 1.84,0.048 2.689,0.048c2.783,-0.048 5.566,0 8.397,0c5.85,0.047 11.747,0.141 17.596,0.283c1.604,0.047 2.736,-0.142 3.727,-1.463c0.849,-1.132 1.51,-2.406 2.123,-3.679c0.472,0 0.991,0 1.462,0c0.991,0.047 0.944,-1.321 0.048,-1.369Zm-21.418,-13.114c0.896,-1.746 2.453,-2.972 4.482,-3.067c1.038,-0.047 2.075,0.142 3.019,0.614l0.047,0c-1.179,-0.047 -2.453,0.33 -3.397,0.849c-1.887,0.991 -3.019,2.83 -3.207,4.906c-0.189,1.793 0.471,3.538 1.132,5.189c0.566,1.368 1.179,2.736 1.934,4.01c-0.519,0 -1.038,0 -1.604,0c0,-0.047 -0.047,-0.094 -0.047,-0.141c-2.123,-3.774 -4.623,-8.067 -2.359,-12.36Zm8.775,8.208c-1.51,-1.132 -3.444,-1.556 -5.284,-1.226c-0.236,-0.614 -0.425,-1.227 -0.566,-1.84c-0.142,-0.566 -0.189,-1.132 -0.142,-1.651c1.085,0.141 2.218,0.188 3.303,0.424c1.556,0.378 3.019,0.991 4.293,1.935c2.311,1.651 3.915,4.245 4.623,6.981c-1.132,-0.047 -2.265,-0.094 -3.35,-0.141c-0.613,-1.698 -1.368,-3.397 -2.877,-4.482Zm0.519,4.435c-0.991,-0.047 -1.935,-0.047 -2.925,-0.047c-0.755,-1.18 -1.51,-2.454 -2.123,-3.822c1.226,0.048 2.406,0.331 3.349,1.18c0.849,0.66 1.321,1.651 1.699,2.689Zm-12.36,-13.304c0.471,-0.424 1.038,-0.754 1.604,-0.99c-1.227,1.887 -1.699,4.245 -1.51,6.463c0.283,2.83 1.557,5.283 2.878,7.689c-1.085,0 -2.17,0 -3.208,0c-1.132,-2.925 -2.312,-6.038 -1.793,-9.199c0.236,-1.557 0.897,-2.972 2.029,-3.963Zm2.453,-12.784c-0.944,0.141 -1.982,0.094 -3.019,0c-0.566,-0.33 -1.133,-0.66 -1.557,-1.179c-0.33,-0.425 -0.519,-0.897 -0.519,-1.368c1.274,0.188 5.944,0.141 6.982,0.141c0,1.179 -0.33,2.217 -1.887,2.406Zm-3.019,-6.888c0.094,0 2.689,-0.094 3.679,0.189c1.18,0.33 1.18,1.274 1.18,2.359c-0.944,0 -5.378,0 -6.605,0.094c0.378,-0.99 1.085,-1.934 1.746,-2.642Zm-2.925,13.54c0.849,-1.604 0.849,-3.303 -0.378,-4.718c-0.66,-0.802 -1.604,-1.368 -2.217,-2.217c-0.66,-0.944 -0.991,-2.17 -0.849,-3.302c0.142,-1.18 0.849,-1.982 1.793,-2.689c0.424,-0.283 0.849,-0.472 1.226,-0.755c0.142,0 0.991,0 1.274,0.047c-0.708,0.755 -1.274,1.698 -1.604,2.689c-0.708,1.887 -0.142,3.585 1.227,4.812c-0.284,0.708 0.047,1.604 1.037,1.557c0.425,0 0.85,-0.048 1.274,-0.048c0.189,0.142 0.33,0.284 0.472,0.472c0.849,1.18 -0.236,2.736 -0.896,3.821c-1.274,2.076 -2.265,3.727 -1.982,6.275c0,0.188 0.047,0.33 0.142,0.471c-0.661,0.283 -1.368,0.614 -2.029,0.944c0.047,-0.236 0,-0.472 -0.189,-0.708c-1.839,-2.547 0.519,-4.34 1.699,-6.651Zm1.273,19.294c-2.075,0 -4.151,0.047 -6.274,0.095c0.472,-1.038 1.415,-2.17 2.029,-2.878c0.802,-0.896 1.698,-1.557 2.689,-2.123c0.377,1.651 0.99,3.302 1.556,4.906Zm-9.859,-2.075c0.66,-1.369 1.415,-2.784 2.453,-3.916c1.746,-1.981 3.868,-3.255 6.038,-4.529c-0.377,1.18 -0.471,2.406 -0.377,3.633c-1.557,0.707 -2.878,1.698 -3.963,3.066c-0.802,0.991 -1.981,2.595 -2.028,3.963c-0.33,0 -0.708,0 -1.038,0c-0.613,0 -1.227,0.047 -1.887,0.047c0.283,-0.802 0.519,-1.698 0.802,-2.264Zm31.89,5.896c-0.424,0.708 -0.755,1.321 -1.651,1.416c-0.377,0.047 -0.802,-0.048 -1.179,-0.048c-2.218,-0.094 -4.482,-0.141 -6.699,-0.141c-5.755,-0.047 -11.511,-0.189 -17.219,0c-1.038,0.047 -2.076,0.094 -3.114,0.189c-0.802,0.047 -1.037,-0.283 -1.462,-0.991c-0.472,-0.802 -1.038,-1.557 -1.51,-2.312c3.02,0.189 6.086,0.048 9.105,0.048c6.558,0 13.162,0.047 19.719,0.047c1.699,0 3.444,0 5.142,0c-0.424,0.613 -0.754,1.226 -1.132,1.792Zm1.368,-3.396c-0.283,0 -0.519,-0.047 -0.802,-0.047c-1.038,-3.255 -2.83,-6.275 -5.614,-8.303c-2.217,-1.604 -5.755,-2.689 -8.633,-2.123c0.189,-0.613 0.519,-1.179 0.991,-1.698c0.755,-0.755 1.793,-1.18 2.831,-1.321c0.849,-0.095 1.698,0.141 2.547,0.094c0.755,0.472 1.557,0.849 2.217,1.368c1.321,0.944 2.548,2.17 3.538,3.491c1.793,2.453 2.972,5.472 2.925,8.539Z" style="fill:#f2eede;fill-rule:nonzero;"/></g><g><path d="M41.096,35.243c-0.378,0 -0.802,-0.047 -1.18,-0.047c-0.141,-3.585 -1.274,-6.887 -3.444,-9.765c-1.085,-1.368 -2.311,-2.547 -3.726,-3.585c-0.85,-0.613 -1.935,-1.321 -3.02,-1.651c-0.566,-1.746 -3.396,-2.784 -4.906,-2.972c-1.934,-0.283 -3.774,0.377 -5.142,1.604c-1.085,-0.331 -2.453,0.235 -3.349,0.802c-0.283,0.188 -0.519,0.377 -0.755,0.566c0.189,-3.255 4.387,-6.227 2.783,-9.435c0.661,-0.048 1.274,-0.142 1.887,-0.331c2.123,-0.66 2.548,-2.264 2.595,-4.057c0.283,0 7.972,-0.047 11.511,0.283c1.603,0.142 1.603,-2.641 0,-2.5c-3.539,0.283 -11.275,0.236 -11.558,0.236c-0.095,-2.123 -0.566,-3.915 -3.067,-4.151c-1.557,-0.142 -3.113,-0.236 -4.67,-0.189c-0.755,0 -1.934,-0.142 -2.831,0.047c-1.556,0 -3.396,1.604 -4.009,2.736c-1.227,2.076 -0.802,4.906 0.613,6.841c0.707,0.943 1.887,1.556 2.5,2.547c0.849,1.368 -0.566,2.878 -1.321,3.963c-1.509,2.264 -2.123,4.576 -0.472,6.935c0.189,0.235 0.425,0.377 0.661,0.424c-1.793,1.179 -3.397,2.595 -4.67,4.151c-1.038,1.274 -1.887,2.689 -2.548,4.199c-0.33,0.802 -0.896,1.981 -0.943,3.019c-0.566,0.095 -1.133,0.189 -1.699,0.33c-0.424,0.142 -0.471,0.85 0,0.944c0.566,0.094 1.085,0.142 1.651,0.236c0,0.094 0.048,0.189 0.048,0.236c0.424,0.896 0.896,1.745 1.415,2.594c0.424,0.755 0.708,1.84 1.604,2.17c0.755,0.283 1.84,0.048 2.689,0.048c2.783,-0.048 5.566,0 8.397,0c5.85,0.047 11.747,0.141 17.596,0.283c1.604,0.047 2.736,-0.142 3.727,-1.463c0.849,-1.132 1.51,-2.406 2.123,-3.679c0.472,0 0.991,0 1.462,0c0.991,0.047 0.944,-1.321 0.048,-1.369Zm-21.418,-13.114c0.896,-1.746 2.453,-2.972 4.482,-3.067c1.038,-0.047 2.075,0.142 3.019,0.614l0.047,0c-1.179,-0.047 -2.453,0.33 -3.397,0.849c-1.887,0.991 -3.019,2.83 -3.207,4.906c-0.189,1.793 0.471,3.538 1.132,5.189c0.566,1.368 1.179,2.736 1.934,4.01c-0.519,0 -1.038,0 -1.604,0c0,-0.047 -0.047,-0.094 -0.047,-0.141c-2.123,-3.774 -4.623,-8.067 -2.359,-12.36Zm8.775,8.208c-1.51,-1.132 -3.444,-1.556 -5.284,-1.226c-0.236,-0.614 -0.425,-1.227 -0.566,-1.84c-0.142,-0.566 -0.189,-1.132 -0.142,-1.651c1.085,0.141 2.218,0.188 3.303,0.424c1.556,0.378 3.019,0.991 4.293,1.935c2.311,1.651 3.915,4.245 4.623,6.981c-1.132,-0.047 -2.265,-0.094 -3.35,-0.141c-0.613,-1.698 -1.368,-3.397 -2.877,-4.482Zm0.519,4.435c-0.991,-0.047 -1.935,-0.047 -2.925,-0.047c-0.755,-1.18 -1.51,-2.454 -2.123,-3.822c1.226,0.048 2.406,0.331 3.349,1.18c0.849,0.66 1.321,1.651 1.699,2.689Zm-12.36,-13.304c0.471,-0.424 1.038,-0.754 1.604,-0.99c-1.227,1.887 -1.699,4.245 -1.51,6.463c0.283,2.83 1.557,5.283 2.878,7.689c-1.085,0 -2.17,0 -3.208,0c-1.132,-2.925 -2.312,-6.038 -1.793,-9.199c0.236,-1.557 0.897,-2.972 2.029,-3.963Zm2.453,-12.784c-0.944,0.141 -1.982,0.094 -3.019,0c-0.566,-0.33 -1.133,-0.66 -1.557,-1.179c-0.33,-0.425 -0.519,-0.897 -0.519,-1.368c1.274,0.188 5.944,0.141 6.982,0.141c0,1.179 -0.33,2.217 -1.887,2.406Zm-3.019,-6.888c0.094,0 2.689,-0.094 3.679,0.189c1.18,0.33 1.18,1.274 1.18,2.359c-0.944,0 -5.378,0 -6.605,0.094c0.378,-0.99 1.085,-1.934 1.746,-2.642Zm-2.925,13.54c0.849,-1.604 0.849,-3.303 -0.378,-4.718c-0.66,-0.802 -1.604,-1.368 -2.217,-2.217c-0.66,-0.944 -0.991,-2.17 -0.849,-3.302c0.142,-1.18 0.849,-1.982 1.793,-2.689c0.424,-0.283 0.849,-0.472 1.226,-0.755c0.142,0 0.991,0 1.274,0.047c-0.708,0.755 -1.274,1.698 -1.604,2.689c-0.708,1.887 -0.142,3.585 1.227,4.812c-0.284,0.708 0.047,1.604 1.037,1.557c0.425,0 0.85,-0.048 1.274,-0.048c0.189,0.142 0.33,0.284 0.472,0.472c0.849,1.18 -0.236,2.736 -0.896,3.821c-1.274,2.076 -2.265,3.727 -1.982,6.275c0,0.188 0.047,0.33 0.142,0.471c-0.661,0.283 -1.368,0.614 -2.029,0.944c0.047,-0.236 0,-0.472 -0.189,-0.708c-1.839,-2.547 0.519,-4.34 1.699,-6.651Zm1.273,19.294c-2.075,0 -4.151,0.047 -6.274,0.095c0.472,-1.038 1.415,-2.17 2.029,-2.878c0.802,-0.896 1.698,-1.557 2.689,-2.123c0.377,1.651 0.99,3.302 1.556,4.906Zm-9.859,-2.075c0.66,-1.369 1.415,-2.784 2.453,-3.916c1.746,-1.981 3.868,-3.255 6.038,-4.529c-0.377,1.18 -0.471,2.406 -0.377,3.633c-1.557,0.707 -2.878,1.698 -3.963,3.066c-0.802,0.991 -1.981,2.595 -2.028,3.963c-0.33,0 -0.708,0 -1.038,0c-0.613,0 -1.227,0.047 -1.887,0.047c0.283,-0.802 0.519,-1.698 0.802,-2.264Zm31.89,5.896c-0.424,0.708 -0.755,1.321 -1.651,1.416c-0.377,0.047 -0.802,-0.048 -1.179,-0.048c-2.218,-0.094 -4.482,-0.141 -6.699,-0.141c-5.755,-0.047 -11.511,-0.189 -17.219,0c-1.038,0.047 -2.076,0.094 -3.114,0.189c-0.802,0.047 -1.037,-0.283 -1.462,-0.991c-0.472,-0.802 -1.038,-1.557 -1.51,-2.312c3.02,0.189 6.086,0.048 9.105,0.048c6.558,0 13.162,0.047 19.719,0.047c1.699,0 3.444,0 5.142,0c-0.424,0.613 -0.754,1.226 -1.132,1.792Zm1.368,-3.396c-0.283,0 -0.519,-0.047 -0.802,-0.047c-1.038,-3.255 -2.83,-6.275 -5.614,-8.303c-2.217,-1.604 -5.755,-2.689 -8.633,-2.123c0.189,-0.613 0.519,-1.179 0.991,-1.698c0.755,-0.755 1.793,-1.18 2.831,-1.321c0.849,-0.095 1.698,0.141 2.547,0.094c0.755,0.472 1.557,0.849 2.217,1.368c1.321,0.944 2.548,2.17 3.538,3.491c1.793,2.453 2.972,5.472 2.925,8.539Z" style="fill:#303441;fill-rule:nonzero;"/></g></svg>