<?xml version="1.0" encoding="UTF-8" standalone="no"?><!DOCTYPE svg PUBLIC "-//W3C//DTD SVG 1.1//EN" "http://www.w3.org/Graphics/SVG/1.1/DTD/svg11.dtd"><svg width="100%" height="100%" viewBox="0 0 56 66" version="1.1" xmlns="http://www.w3.org/2000/svg" xmlns:xlink="http://www.w3.org/1999/xlink" xml:space="preserve" xmlns:serif="http://www.serif.com/" style="fill-rule:evenodd;clip-rule:evenodd;stroke-linejoin:round;stroke-miterlimit:1.41421;"><g><g><path d="M0.012,31.28c0.662,5.667 1.03,10.524 1.693,15.749c0.515,4.342 0.441,9.42 1.987,13.542c1.545,4.121 5.151,4.415 9.052,4.489c5.667,0.147 11.407,0.074 17.148,0.074c2.723,0 5.372,0 8.095,0c2.134,0 4.268,-0.148 5.961,-1.619c1.84,-1.546 3.238,-4.122 3.753,-6.477c0.957,-4.195 1.325,-8.61 1.988,-12.879c0.662,-4.121 1.324,-8.243 1.987,-12.29c0.22,-1.251 -0.884,-2.061 -2.061,-1.546c-0.736,0.295 -1.472,0.515 -2.282,0.663c2.135,-6.109 3.754,-12.438 4.784,-18.841c0.662,-4.268 1.84,-11.996 -4.71,-12.143c-6.035,-0.147 -9.494,7.212 -11.702,11.702c-0.883,1.766 -1.692,3.606 -2.428,5.372c-1.178,-0.957 -2.65,-1.693 -3.238,-2.723c0.22,-0.147 0.515,-0.368 0.809,-0.515c0.442,-0.294 0.81,-0.957 0.589,-1.472c-0.589,-1.766 -1.251,-3.459 -1.84,-5.225c-0.221,-0.736 -0.809,-0.957 -1.545,-0.883c-4.269,0.662 -8.169,2.355 -12.07,4.121c-0.515,0.221 -0.736,0.957 -0.589,1.472c0.442,1.766 1.031,3.459 1.546,5.225c0.221,0.736 0.957,1.104 1.692,0.957c0.221,-0.074 0.516,-0.147 0.81,-0.221c0.147,0.736 0.074,1.325 -0.294,2.208c-0.442,1.03 -0.736,2.061 -0.957,3.091c-1.104,-1.84 -2.944,-3.238 -5.446,-3.827c-1.693,-0.368 -3.459,-0.368 -5.152,0.074c-0.956,-1.031 -2.06,-1.914 -3.311,-2.355c-1.325,-0.442 -2.503,1.471 -1.399,2.355c0.589,0.441 1.178,0.809 1.766,1.251c-0.294,0.221 -0.588,0.441 -0.883,0.662c-2.355,1.987 -3.753,5.52 -2.428,8.463c-0.221,0.148 -1.472,0.589 -1.325,1.546Zm36.429,-14.866c1.031,-2.355 2.208,-4.637 3.459,-6.844c1.399,-2.429 3.091,-5.52 5.888,-6.477c5.299,-1.84 4.268,5.446 3.312,9.935c-2.87,-0.588 -6.109,-0.441 -8.464,1.472c-0.883,0.736 0.074,1.914 1.031,1.767c2.428,-0.368 4.415,-1.031 6.844,-0.516c0,0.074 0,0.074 0,0.148c-0.221,1.104 -0.515,2.208 -0.736,3.311c-2.944,-0.441 -6.108,-0.294 -8.684,1.325c-0.883,0.589 -0.368,1.987 0.736,1.693c2.502,-0.663 4.857,-0.883 7.359,-0.589c-0.368,1.251 -0.736,2.502 -1.177,3.753c-2.944,-0.809 -6.845,-0.809 -8.979,1.178c-0.515,0.515 -0.073,1.251 0.515,1.325c1.472,0.073 2.944,-0.295 4.416,-0.295c1.03,0 2.061,0.221 3.091,0.442c-0.368,1.03 -0.81,2.06 -1.177,3.091c-2.429,-0.295 -4.858,-0.957 -7.139,-1.325c-1.766,-0.221 -3.386,-0.221 -5.005,0c1.325,-4.563 2.797,-9.052 4.71,-13.394Zm-6.034,1.545c0.736,0.442 1.324,1.031 1.913,1.546c-0.294,0.809 -0.589,1.619 -0.883,2.355c-0.81,0.883 -1.398,1.619 -2.797,1.693c-1.398,0.073 -2.723,-0.368 -4.121,-0.295c-1.325,0.147 -2.576,0.589 -3.68,1.398c0.148,-1.177 0.442,-2.428 0.957,-3.753c0.442,-1.03 0.81,-2.061 0.589,-3.164c-0.074,-0.516 -0.368,-0.884 -0.442,-1.399c0,-0.147 -0.073,-0.294 -0.073,-0.368c0.294,-0.073 0.588,-0.147 0.883,-0.294c0.662,-0.221 3.9,-1.693 4.342,-1.398c0.368,0.22 0.515,1.619 0.883,2.06c0.662,0.81 1.693,1.178 2.429,1.619Zm-0.368,8.169c-0.368,1.325 -0.736,2.723 -1.104,4.122c-1.325,0.294 -2.65,0.662 -4.048,1.03c-1.03,0.294 -2.134,0.515 -3.165,0.589c-0.367,-1.251 -0.662,-2.429 -0.809,-3.606c1.104,-1.325 2.281,-2.355 4.195,-2.355c1.325,0 2.649,0.441 3.974,0.368c0.294,0 0.662,-0.074 0.957,-0.148Zm-11.113,-11.112c-0.295,-0.884 -0.662,-1.767 -0.883,-2.723c3.017,-1.472 6.035,-2.723 9.346,-3.312c0.295,0.956 0.663,1.913 0.957,2.87c0,0 -8.979,1.766 -9.42,3.165Zm-12.511,8.389c0.073,-0.073 0.147,-0.073 0.221,-0.147c0.22,0.442 0.441,0.883 0.662,1.398c0.515,1.031 2.355,0.589 2.208,-0.588c-0.074,-0.589 -0.147,-1.104 -0.368,-1.693c1.177,-0.221 2.502,-0.147 3.606,0.221c3.827,1.177 4.857,5.446 3.827,8.905c-1.766,-0.442 -3.459,-1.104 -5.152,-1.619c-2.428,-0.663 -5.004,-1.251 -7.433,-0.883c0.074,-2.282 0.295,-4.195 2.429,-5.594Zm-3.827,9.126c3.753,-1.987 8.758,0.442 12.511,1.546c4.268,1.177 7.948,0.736 12.143,-0.442c2.134,-0.589 4.269,-1.251 6.476,-1.251c2.135,0 4.195,0.441 6.33,0.883c2.943,0.589 5.74,0.957 8.537,0.294c-1.031,6.698 -3.459,22.152 -3.68,23.109c-0.295,1.104 -0.883,2.355 -1.546,3.312c-1.766,2.429 -4.563,1.987 -7.212,1.913c-4.931,-0.147 -9.935,-0.147 -14.866,-0.073c-2.429,0 -4.784,0 -7.212,0c-1.914,0 -5.741,0.809 -7.065,-0.957c-1.325,-1.766 -1.325,-4.636 -1.546,-6.697c-0.368,-2.649 -0.662,-5.225 -1.03,-7.875c-0.589,-4.563 -1.178,-9.125 -1.914,-13.615c0,-0.147 0,-0.147 0.074,-0.147Z" style="fill:#8dd7cd;fill-rule:nonzero;"/><path d="M7.298,28.042c0.441,0 0.883,-0.442 0.883,-0.883c0,-0.515 -0.368,-0.883 -0.883,-0.883c-0.442,0 -0.883,0.441 -0.883,0.883c0,0.441 0.368,0.883 0.883,0.883Z" style="fill:#8dd7cd;fill-rule:nonzero;"/><path d="M11.714,26.202c0.441,0 0.883,-0.442 0.883,-0.883c0,-0.515 -0.368,-0.883 -0.883,-0.883c-0.442,0 -0.884,0.441 -0.884,0.883c0,0.515 0.368,0.883 0.884,0.883Z" style="fill:#8dd7cd;fill-rule:nonzero;"/><path d="M14.289,28.925c0.442,0 0.884,-0.442 0.884,-0.883c0,-0.515 -0.368,-0.883 -0.884,-0.883c-0.441,0 -0.883,0.441 -0.883,0.883c0,0.441 0.368,0.883 0.883,0.883Z" style="fill:#8dd7cd;fill-rule:nonzero;"/><path d="M12.45,47.765c1.766,-0.368 3.311,-2.06 4.93,-2.944c1.84,-1.03 3.827,-1.766 5.888,-2.134c0.662,-0.147 1.177,-0.441 1.545,0.147c0.442,0.663 -0.147,1.104 -0.515,1.693c-0.588,0.957 -1.177,1.987 -1.692,2.944c-0.81,1.619 -1.987,3.459 -2.135,5.299c-0.073,1.251 0.221,2.428 1.325,3.091c1.472,0.956 3.238,0.147 4.71,-0.368c4.342,-1.546 8.464,-3.606 12.29,-6.035c1.767,-1.104 0.148,-3.974 -1.692,-2.87c-1.987,1.251 -8.684,4.71 -9.936,5.225c-0.588,0.221 -2.575,1.325 -3.09,1.177c-1.031,-0.368 0.22,-2.134 0.588,-2.87c0.515,-1.03 3.901,-6.255 3.606,-8.095c-1.03,-6.624 -15.896,0.589 -16.853,4.71c-0.073,0.736 0.442,1.177 1.031,1.03Z" style="fill:#8dd7cd;fill-rule:nonzero;"/></g><g><path d="M2.791,31.28c0.662,5.667 1.03,10.524 1.693,15.749c0.515,4.342 0.441,9.42 1.987,13.542c1.545,4.121 5.152,4.415 9.052,4.489c5.667,0.147 11.407,0.074 17.148,0.074c2.723,0 5.372,0 8.095,0c2.134,0 4.269,-0.148 5.961,-1.619c1.84,-1.546 3.238,-4.122 3.754,-6.477c0.956,-4.195 1.324,-8.61 1.987,-12.879c0.662,-4.121 1.324,-8.243 1.987,-12.29c0.22,-1.251 -0.883,-2.061 -2.061,-1.546c-0.736,0.295 -1.472,0.515 -2.281,0.663c2.134,-6.109 3.753,-12.438 4.783,-18.841c0.663,-4.268 1.84,-11.996 -4.71,-12.143c-6.035,-0.147 -9.494,7.212 -11.701,11.702c-0.884,1.766 -1.693,3.606 -2.429,5.372c-1.178,-0.957 -2.649,-1.693 -3.238,-2.723c0.221,-0.147 0.515,-0.368 0.809,-0.515c0.442,-0.294 0.81,-0.957 0.589,-1.472c-0.589,-1.766 -1.251,-3.459 -1.84,-5.225c-0.221,-0.736 -0.809,-0.957 -1.545,-0.883c-4.269,0.662 -8.169,2.355 -12.07,4.121c-0.515,0.221 -0.736,0.957 -0.589,1.472c0.442,1.766 1.031,3.459 1.546,5.225c0.221,0.736 0.957,1.104 1.693,0.957c0.22,-0.074 0.515,-0.147 0.809,-0.221c0.147,0.736 0.074,1.325 -0.294,2.208c-0.442,1.03 -0.736,2.061 -0.957,3.091c-1.104,-1.84 -2.944,-3.238 -5.446,-3.827c-1.693,-0.368 -3.459,-0.368 -5.152,0.074c-0.956,-1.031 -2.06,-1.914 -3.311,-2.355c-1.325,-0.442 -2.503,1.471 -1.399,2.355c0.589,0.441 1.178,0.809 1.767,1.251c-0.295,0.221 -0.589,0.441 -0.884,0.662c-2.355,1.987 -3.753,5.52 -2.428,8.463c-0.221,0.148 -1.472,0.589 -1.325,1.546Zm36.43,-14.866c1.03,-2.355 2.207,-4.637 3.459,-6.844c1.398,-2.429 3.091,-5.52 5.887,-6.477c5.299,-1.84 4.269,5.446 3.312,9.935c-2.87,-0.588 -6.108,-0.441 -8.464,1.472c-0.883,0.736 0.074,1.914 1.031,1.767c2.428,-0.368 4.415,-1.031 6.844,-0.516c0,0.074 0,0.074 0,0.148c-0.221,1.104 -0.515,2.208 -0.736,3.311c-2.944,-0.441 -6.108,-0.294 -8.684,1.325c-0.883,0.589 -0.368,1.987 0.736,1.693c2.502,-0.663 4.857,-0.883 7.359,-0.589c-0.368,1.251 -0.736,2.502 -1.177,3.753c-2.944,-0.809 -6.844,-0.809 -8.979,1.178c-0.515,0.515 -0.073,1.251 0.515,1.325c1.472,0.073 2.944,-0.295 4.416,-0.295c1.031,0 2.061,0.221 3.091,0.442c-0.368,1.03 -0.809,2.06 -1.177,3.091c-2.429,-0.295 -4.858,-0.957 -7.139,-1.325c-1.766,-0.221 -3.385,-0.221 -5.004,0c1.324,-4.563 2.796,-9.052 4.71,-13.394Zm-6.035,1.545c0.736,0.442 1.325,1.031 1.913,1.546c-0.294,0.809 -0.588,1.619 -0.883,2.355c-0.809,0.883 -1.398,1.619 -2.796,1.693c-1.399,0.073 -2.723,-0.368 -4.122,-0.295c-1.324,0.147 -2.576,0.589 -3.68,1.398c0.148,-1.177 0.442,-2.428 0.957,-3.753c0.442,-1.03 0.81,-2.061 0.589,-3.164c-0.074,-0.516 -0.368,-0.884 -0.442,-1.399c0,-0.147 -0.073,-0.294 -0.073,-0.368c0.294,-0.073 0.589,-0.147 0.883,-0.294c0.662,-0.221 3.9,-1.693 4.342,-1.398c0.368,0.22 0.515,1.619 0.883,2.06c0.663,0.81 1.693,1.178 2.429,1.619Zm-0.368,8.169c-0.368,1.325 -0.736,2.723 -1.104,4.122c-1.325,0.294 -2.65,0.662 -4.048,1.03c-1.03,0.294 -2.134,0.515 -3.164,0.589c-0.368,-1.251 -0.663,-2.429 -0.81,-3.606c1.104,-1.325 2.282,-2.355 4.195,-2.355c1.325,0 2.649,0.441 3.974,0.368c0.294,0 0.662,-0.074 0.957,-0.148Zm-11.113,-11.112c-0.294,-0.884 -0.662,-1.767 -0.883,-2.723c3.017,-1.472 6.035,-2.723 9.346,-3.312c0.295,0.956 0.663,1.913 0.957,2.87c0,0 -8.978,1.766 -9.42,3.165Zm-12.511,8.389c0.073,-0.073 0.147,-0.073 0.221,-0.147c0.22,0.442 0.441,0.883 0.662,1.398c0.515,1.031 2.355,0.589 2.208,-0.588c-0.074,-0.589 -0.147,-1.104 -0.368,-1.693c1.177,-0.221 2.502,-0.147 3.606,0.221c3.827,1.177 4.857,5.446 3.827,8.905c-1.766,-0.442 -3.459,-1.104 -5.152,-1.619c-2.428,-0.663 -5.004,-1.251 -7.433,-0.883c0.074,-2.282 0.295,-4.195 2.429,-5.594Zm-3.827,9.126c3.753,-1.987 8.758,0.442 12.511,1.546c4.269,1.177 7.948,0.736 12.143,-0.442c2.134,-0.589 4.269,-1.251 6.477,-1.251c2.134,0 4.194,0.441 6.329,0.883c2.944,0.589 5.74,0.957 8.537,0.294c-1.031,6.698 -3.459,22.152 -3.68,23.109c-0.294,1.104 -0.883,2.355 -1.546,3.312c-1.766,2.429 -4.562,1.987 -7.212,1.913c-4.931,-0.147 -9.935,-0.147 -14.866,-0.073c-2.429,0 -4.784,0 -7.212,0c-1.914,0 -5.741,0.809 -7.065,-0.957c-1.325,-1.766 -1.325,-4.636 -1.546,-6.697c-0.368,-2.649 -0.662,-5.225 -1.03,-7.875c-0.589,-4.563 -1.178,-9.125 -1.914,-13.615c0,-0.147 0,-0.147 0.074,-0.147Z" style="fill:#303441;fill-rule:nonzero;"/><path d="M10.077,28.042c0.442,0 0.883,-0.442 0.883,-0.883c0,-0.515 -0.368,-0.883 -0.883,-0.883c-0.442,0 -0.883,0.441 -0.883,0.883c0,0.441 0.368,0.883 0.883,0.883Z" style="fill:#303441;fill-rule:nonzero;"/><path d="M14.493,26.202c0.441,0 0.883,-0.442 0.883,-0.883c0,-0.515 -0.368,-0.883 -0.883,-0.883c-0.442,0 -0.883,0.441 -0.883,0.883c0,0.515 0.368,0.883 0.883,0.883Z" style="fill:#303441;fill-rule:nonzero;"/><path d="M17.069,28.925c0.441,0 0.883,-0.442 0.883,-0.883c0,-0.515 -0.368,-0.883 -0.883,-0.883c-0.442,0 -0.884,0.441 -0.884,0.883c0,0.441 0.368,0.883 0.884,0.883Z" style="fill:#303441;fill-rule:nonzero;"/><path d="M15.229,47.765c1.766,-0.368 3.311,-2.06 4.931,-2.944c1.839,-1.03 3.826,-1.766 5.887,-2.134c0.662,-0.147 1.178,-0.441 1.546,0.147c0.441,0.663 -0.148,1.104 -0.516,1.693c-0.588,0.957 -1.177,1.987 -1.692,2.944c-0.81,1.619 -1.987,3.459 -2.135,5.299c-0.073,1.251 0.221,2.428 1.325,3.091c1.472,0.956 3.238,0.147 4.71,-0.368c4.342,-1.546 8.464,-3.606 12.291,-6.035c1.766,-1.104 0.147,-3.974 -1.693,-2.87c-1.987,1.251 -8.684,4.71 -9.935,5.225c-0.589,0.221 -2.576,1.325 -3.091,1.177c-1.031,-0.368 0.22,-2.134 0.588,-2.87c0.516,-1.03 3.901,-6.255 3.607,-8.095c-1.031,-6.624 -15.897,0.589 -16.854,4.71c-0.073,0.736 0.442,1.177 1.031,1.03Z" style="fill:#303441;fill-rule:nonzero;"/></g></g></svg>