<?xml version="1.0" encoding="UTF-8" standalone="no"?><!DOCTYPE svg PUBLIC "-//W3C//DTD SVG 1.1//EN" "http://www.w3.org/Graphics/SVG/1.1/DTD/svg11.dtd"><svg width="100%" height="100%" viewBox="0 0 30 41" version="1.1" xmlns="http://www.w3.org/2000/svg" xmlns:xlink="http://www.w3.org/1999/xlink" xml:space="preserve" xmlns:serif="http://www.serif.com/" style="fill-rule:evenodd;clip-rule:evenodd;stroke-linejoin:round;stroke-miterlimit:1.41421;"><path d="M25.352,14.069l0,-7.877c0.183,-0.032 0.356,-0.122 0.494,-0.258c0.175,-0.175 0.271,-0.407 0.271,-0.654l0,-2.024c0,-0.246 -0.097,-0.478 -0.269,-0.653c-0.136,-0.136 -0.31,-0.205 -0.496,-0.238l0,-2.365l-5.094,0l0,2.365c-0.186,0.033 -0.363,0.104 -0.507,0.249c-0.165,0.175 -0.257,0.403 -0.257,0.642l0,2.026c0,0.24 0.092,0.468 0.268,0.653c0.137,0.138 0.309,0.225 0.496,0.258l0,7.878c-1.866,0.813 -3.199,2.473 -3.645,4.421l-1.805,-3.727l0,-3.392l-11.908,0l0,3.392l-2.9,5.992l0,20.118l16.969,0l0,-0.008c0.034,0.001 0.067,0.012 0.103,0.012c0.034,0 0.066,-0.011 0.101,-0.012l0,0.008l12.002,0l0,-20.972c0,-2.539 -1.519,-4.829 -3.823,-5.834Zm-1.272,-9.136l0,4.465l-2.549,0l0,-4.465l-0.764,0l0,-1.326l4.078,0l0,1.326l-0.765,0Zm-2.548,-3.66l2.548,0l0,1.059l-2.548,0l0,-1.059Zm-10.898,32.821l-9.36,0l0,-7.048l9.36,0l0,7.048Zm0,-8.322l-9.36,0l0,-4.235l9.36,0l0,4.235Zm-8.982,-5.507l2.285,-4.72l9.218,0l-2.283,4.72l-9.22,0Zm12.518,-3.898l1.886,3.898l-3.77,0l1.884,-3.898Zm-9.996,-3.724l9.361,0l0,1.629l-9.361,0l0,-1.629Zm-2.9,22.724l9.36,0l0,4.235l-9.36,0l0,-4.235Zm10.633,4.233l0,-18.062l4.529,0l0,10.211c-2.232,0.312 -3.962,2.213 -3.962,4.531c0,1.308 0.555,2.483 1.435,3.32l-2.002,0Zm1.84,-3.32c0,-1.833 1.492,-3.324 3.325,-3.324c1.832,0 3.324,1.491 3.324,3.324c0,1.833 -1.491,3.324 -3.324,3.324c-1.834,0 -3.325,-1.492 -3.325,-3.324Zm6.488,3.32c0.877,-0.837 1.435,-2.012 1.435,-3.32c0,-2.317 -1.729,-4.218 -3.959,-4.531l0,-10.992l0,-0.854c0,-2.155 1.364,-4.082 3.396,-4.801l0.426,-0.15l0,-4.281l2.547,0l0,4.281l0.426,0.15c2.035,0.719 3.4,2.648 3.4,4.802l0,3.218l-5.734,0l0,13.898l5.734,0l0,2.581l-7.671,-0.001Zm4.283,-14.217l0,9.374l3.384,0l0,0.991l-4.461,0l0,-11.355l4.461,0l0,0.991l-3.384,-0.001Zm3.384,1.274l0,6.828l-2.111,0l0,-6.828l2.111,0Z" style="fill-rule:nonzero;"/><rect x="3.018" y="31.135" width="2.83" height="1.274"/><rect x="3.018" y="28.731" width="5.657" height="1.273"/><circle cx="7.405" cy="17.905" r="0.99"/><path d="M14.313,36.28l1.274,0c0,-0.819 0.667,-1.485 1.485,-1.483l0,-1.275c-1.521,0 -2.759,1.238 -2.759,2.758Z" style="fill-rule:nonzero;"/></svg>